<?xml version="1.0" encoding="UTF-8"?>
<svg version="1.1" xmlns="http://www.w3.org/2000/svg" width="929" height="1016">
<path d="M0 0 C3.71127006 1.66406716 6.83175439 3.91672385 10.09765625 6.32421875 C11.62323985 7.42511421 13.14930111 8.52534799 14.67578125 9.625 C15.47177734 10.2020166 16.26777344 10.7790332 17.08789062 11.37353516 C21.14430101 14.29606067 25.24708918 17.15165261 29.34765625 20.01171875 C31.04179872 21.19642577 32.73580815 22.38132305 34.4296875 23.56640625 C35.27354004 24.15647461 36.11739258 24.74654297 36.98681641 25.35449219 C41.17058685 28.28048608 45.35280149 31.20870185 49.53515625 34.13671875 C51.20181527 35.30339634 52.86848194 36.470063 54.53515625 37.63671875 C91.20182292 63.30338542 127.86848958 88.97005208 164.53515625 114.63671875 C165.7730188 115.50321045 165.7730188 115.50321045 167.03588867 116.38720703 C168.70014453 117.55220239 170.36436986 118.71724135 172.02856445 119.88232422 C176.23186548 122.82492286 180.43571806 125.76672779 184.640625 128.70703125 C193.1432609 134.65366004 201.63606331 140.61350777 210.10888672 146.60253906 C218.04995433 152.21257284 226.01880944 157.7828211 233.98681641 163.35449219 C238.17058685 166.28048608 242.35280149 169.20870185 246.53515625 172.13671875 C248.20181527 173.30339634 249.86848194 174.470063 251.53515625 175.63671875 C316.53515625 221.13671875 316.53515625 221.13671875 381.53515625 266.63671875 C382.36088135 267.21470215 383.18660645 267.79268555 384.03735352 268.38818359 C385.69678781 269.54983626 387.35613091 270.7116192 389.01538086 271.87353516 C393.29194783 274.8680145 397.57028361 277.85991675 401.8515625 280.84765625 C416.44065958 291.03242139 416.44065958 291.03242139 423.22265625 295.88671875 C424.46595703 296.77617188 424.46595703 296.77617188 425.734375 297.68359375 C427.53515625 299.13671875 427.53515625 299.13671875 428.53515625 301.13671875 C427.15070313 302.08417969 427.15070313 302.08417969 425.73828125 303.05078125 C416.99665016 309.0426707 408.29379023 315.08693463 399.62792969 321.18798828 C394.31643703 324.91942528 388.95292776 328.56132984 383.53515625 332.13671875 C385.27132554 335.82919714 387.42965799 338.39269305 390.22265625 341.38671875 C393.21995241 344.62487386 396.20570234 347.86600427 399.09765625 351.19921875 C401.71217567 354.20745403 404.36467281 357.17802124 407.03515625 360.13671875 C410.29906473 363.7534822 413.52306574 367.40061483 416.72265625 371.07421875 C418.80726789 373.44636304 420.91944269 375.7922794 423.03515625 378.13671875 C438.53515625 395.32666764 438.53515625 395.32666764 438.53515625 398.13671875 C436.81030273 399.56958008 436.81030273 399.56958008 434.40625 401.21875 C433.53548828 401.82138672 432.66472656 402.42402344 431.76757812 403.04492188 C430.84525391 403.67333984 429.92292969 404.30175781 428.97265625 404.94921875 C427.17952456 406.18465937 425.38655294 407.42033237 423.59375 408.65625 C422.73378418 409.24615723 421.87381836 409.83606445 420.98779297 410.44384766 C417.80941113 412.63764615 414.66898498 414.87984621 411.53515625 417.13671875 C412.97684083 421.57580404 415.42298706 424.63977822 418.47265625 428.07421875 C422.40737525 432.61153483 426.22596946 437.20603932 429.91015625 441.94921875 C434.42302176 447.7479952 439.03155423 453.46129355 443.68115234 459.15087891 C447.81364298 464.21870185 451.86640659 469.34410555 455.84570312 474.53320312 C457.81437086 477.07312234 459.64869842 479.22919985 462.14904755 481.26575631 C465.43948463 485.22480531 465.22851739 488.06198701 465.15039539 493.06039906 C465.15616412 493.9647122 465.16193284 494.86902535 465.16787637 495.80074192 C465.18116166 498.84587589 465.15864544 501.88970171 465.13642883 504.93476868 C465.1386153 507.12816174 465.14299868 509.32155354 465.1493988 511.51493835 C465.16064507 517.56693232 465.14050446 523.6184863 465.1155199 529.67042436 C465.09598221 535.60666555 465.10011664 541.54287939 465.1035584 547.4791414 C465.10977134 559.55290007 465.09329129 571.62652283 465.06303406 583.70024109 C465.02219424 600.02558205 465.01252086 616.35072316 465.00817871 632.67614746 C464.98190797 671.93386557 464.91210266 711.19154475 464.84765625 750.44921875 C464.74453125 838.12609375 464.64140625 925.80296875 464.53515625 1016.13671875 C158.29515625 1016.13671875 -147.94484375 1016.13671875 -463.46484375 1016.13671875 C-463.91859375 928.70734375 -464.37234375 841.27796875 -464.83984375 751.19921875 C-465.10933838 709.77015991 -465.10933838 709.77015991 -465.38427734 667.50415039 C-465.51098633 633.81140137 -465.51098633 633.81140137 -465.55239868 618.04490662 C-465.58843917 606.29263395 -465.67100269 594.54167877 -465.77624219 582.78988314 C-465.88249526 570.7964556 -465.93583504 558.80364222 -465.93889175 546.80973979 C-465.94195308 540.30411364 -465.96819153 533.80024581 -466.05654025 527.2951318 C-466.13611239 521.4053064 -466.15023192 515.51899696 -466.11340523 509.62878227 C-466.11147133 507.50629766 -466.13303115 505.38362506 -466.18124127 503.26168716 C-466.45965753 490.30312794 -464.79425006 482.38386764 -455.85018637 472.66817031 C-454.64291746 471.41659485 -453.42621641 470.17403674 -452.1994514 468.94156485 C-449.53146974 466.16555018 -447.22493151 463.13925505 -444.90234375 460.07421875 C-440.9875493 455.04143511 -436.99648922 450.07631254 -432.96484375 445.13671875 C-428.74170438 439.95622579 -424.54319956 434.75830718 -420.40234375 429.51171875 C-419.96148437 428.95613281 -419.520625 428.40054687 -419.06640625 427.828125 C-416.34585891 424.36637591 -413.86227501 420.82422272 -411.46484375 417.13671875 C-412.13902344 416.915 -412.81320312 416.69328125 -413.5078125 416.46484375 C-417.33583722 414.74551957 -420.43852685 412.40519576 -423.77734375 409.88671875 C-424.43871338 409.39453857 -425.10008301 408.9023584 -425.78149414 408.39526367 C-427.67985089 406.98087949 -429.57286452 405.55961654 -431.46484375 404.13671875 C-432.37492187 403.45738281 -433.285 402.77804687 -434.22265625 402.078125 C-435.97387286 400.76942011 -437.72016613 399.45412838 -439.46484375 398.13671875 C-438.11375409 395.17345931 -436.57777727 392.9288671 -434.40234375 390.51171875 C-433.78230469 389.81820313 -433.16226562 389.1246875 -432.5234375 388.41015625 C-431.50443359 387.28480469 -431.50443359 387.28480469 -430.46484375 386.13671875 C-429.73394531 385.32460938 -429.00304687 384.5125 -428.25 383.67578125 C-426.71859858 381.97422412 -425.1860339 380.27371324 -423.65234375 378.57421875 C-421.73930226 376.44254394 -419.84596763 374.29652765 -417.96484375 372.13671875 C-414.57231282 368.24159064 -411.11290174 364.40889112 -407.65234375 360.57421875 C-405.16789765 357.80583595 -402.72102362 355.00693967 -400.28125 352.19921875 C-398.18404966 349.81788159 -396.04198672 347.47996715 -393.90234375 345.13671875 C-390.14865031 340.98451676 -386.71125244 336.69442193 -383.46484375 332.13671875 C-384.49158203 331.79447266 -384.49158203 331.79447266 -385.5390625 331.4453125 C-389.16152187 329.82512039 -392.13897654 327.58681009 -395.27734375 325.19921875 C-400.70173358 321.14458346 -406.18450519 317.20586086 -411.77734375 313.38671875 C-412.44419189 312.92990723 -413.11104004 312.4730957 -413.7980957 312.00244141 C-416.75688372 309.97802683 -419.72177558 307.96367035 -422.6953125 305.9609375 C-424.06623047 305.02701172 -424.06623047 305.02701172 -425.46484375 304.07421875 C-426.24859375 303.54699219 -427.03234375 303.01976562 -427.83984375 302.4765625 C-428.64421875 301.81333984 -428.64421875 301.81333984 -429.46484375 301.13671875 C-429.46484375 300.47671875 -429.46484375 299.81671875 -429.46484375 299.13671875 C-427.67089844 297.66308594 -427.67089844 297.66308594 -425.13671875 295.93359375 C-424.20190674 295.29019043 -423.26709473 294.64678711 -422.30395508 293.98388672 C-420.77484497 292.94578857 -420.77484497 292.94578857 -419.21484375 291.88671875 C-417.08831282 290.42611437 -414.96201473 288.96517096 -412.8359375 287.50390625 C-411.7619873 286.76881836 -410.68803711 286.03373047 -409.58154297 285.27636719 C-405.1260353 282.21761196 -400.7003338 279.1172224 -396.27734375 276.01171875 C-394.63811241 274.86315054 -392.99878957 273.71471292 -391.359375 272.56640625 C-390.15015381 271.71900879 -390.15015381 271.71900879 -388.91650391 270.85449219 C-384.76697947 267.94709785 -380.61582069 265.04203874 -376.46484375 262.13671875 C-374.79816944 260.970063 -373.13150277 259.80339634 -371.46484375 258.63671875 C-161.46484375 111.63671875 -161.46484375 111.63671875 -158.96411133 109.88623047 C-157.29985547 108.72123511 -155.63563014 107.55619615 -153.97143555 106.39111328 C-149.76813452 103.44851464 -145.56428194 100.50670971 -141.359375 97.56640625 C-133.55045707 92.10495444 -125.74638995 86.63711943 -117.96484375 81.13671875 C-109.33396305 75.03596436 -100.67495321 68.97573362 -92.01318359 62.91894531 C-87.82941315 59.99295142 -83.64719851 57.06473565 -79.46484375 54.13671875 C-77.79818473 52.97004116 -76.13151806 51.8033745 -74.46484375 50.63671875 C-73.63984375 50.05921875 -72.81484375 49.48171875 -71.96484375 48.88671875 C-44.46484375 29.63671875 -44.46484375 29.63671875 -41.96166992 27.88452148 C-40.30555206 26.72522279 -38.6494645 25.56588078 -36.9934082 24.40649414 C-32.6656005 21.37673025 -28.3371697 18.34786192 -24.0078125 15.3203125 C-23.11126953 14.69318359 -22.21472656 14.06605469 -21.29101562 13.41992188 C-19.5854829 12.22693266 -17.87976642 11.03420607 -16.17382812 9.84179688 C-15.00883789 9.02678711 -15.00883789 9.02678711 -13.8203125 8.1953125 C-13.07958496 7.68210449 -12.33885742 7.16889648 -11.57568359 6.64013672 C-10.19666999 5.65795238 -8.8408826 4.64207921 -7.51416016 3.59033203 C-3.15347876 0.17491562 -3.15347876 0.17491562 0 0 Z " fill="#8A7570" transform="translate(464.46484375,-0.13671875)"/>
<path d="M0 0 C3.71127006 1.66406716 6.83175439 3.91672385 10.09765625 6.32421875 C11.62323985 7.42511421 13.14930111 8.52534799 14.67578125 9.625 C15.47177734 10.2020166 16.26777344 10.7790332 17.08789062 11.37353516 C21.14430101 14.29606067 25.24708918 17.15165261 29.34765625 20.01171875 C31.04179872 21.19642577 32.73580815 22.38132305 34.4296875 23.56640625 C35.27354004 24.15647461 36.11739258 24.74654297 36.98681641 25.35449219 C41.17058685 28.28048608 45.35280149 31.20870185 49.53515625 34.13671875 C51.20181527 35.30339634 52.86848194 36.470063 54.53515625 37.63671875 C91.20182292 63.30338542 127.86848958 88.97005208 164.53515625 114.63671875 C165.7730188 115.50321045 165.7730188 115.50321045 167.03588867 116.38720703 C168.70014453 117.55220239 170.36436986 118.71724135 172.02856445 119.88232422 C176.23186548 122.82492286 180.43571806 125.76672779 184.640625 128.70703125 C193.1432609 134.65366004 201.63606331 140.61350777 210.10888672 146.60253906 C218.04995433 152.21257284 226.01880944 157.7828211 233.98681641 163.35449219 C238.17058685 166.28048608 242.35280149 169.20870185 246.53515625 172.13671875 C248.20181527 173.30339634 249.86848194 174.470063 251.53515625 175.63671875 C316.53515625 221.13671875 316.53515625 221.13671875 381.53515625 266.63671875 C382.36088135 267.21470215 383.18660645 267.79268555 384.03735352 268.38818359 C385.69678781 269.54983626 387.35613091 270.7116192 389.01538086 271.87353516 C393.29194783 274.8680145 397.57028361 277.85991675 401.8515625 280.84765625 C416.44065958 291.03242139 416.44065958 291.03242139 423.22265625 295.88671875 C424.46595703 296.77617188 424.46595703 296.77617188 425.734375 297.68359375 C427.53515625 299.13671875 427.53515625 299.13671875 428.53515625 301.13671875 C427.15070313 302.08417969 427.15070313 302.08417969 425.73828125 303.05078125 C416.99665016 309.0426707 408.29379023 315.08693463 399.62792969 321.18798828 C394.31643703 324.91942528 388.95292776 328.56132984 383.53515625 332.13671875 C385.27132554 335.82919714 387.42965799 338.39269305 390.22265625 341.38671875 C393.21995241 344.62487386 396.20570234 347.86600427 399.09765625 351.19921875 C401.71217567 354.20745403 404.36467281 357.17802124 407.03515625 360.13671875 C410.29906473 363.7534822 413.52306574 367.40061483 416.72265625 371.07421875 C418.80726789 373.44636304 420.91944269 375.7922794 423.03515625 378.13671875 C438.53515625 395.32666764 438.53515625 395.32666764 438.53515625 398.13671875 C436.81030273 399.56958008 436.81030273 399.56958008 434.40625 401.21875 C433.53548828 401.82138672 432.66472656 402.42402344 431.76757812 403.04492188 C430.84525391 403.67333984 429.92292969 404.30175781 428.97265625 404.94921875 C427.17952456 406.18465937 425.38655294 407.42033237 423.59375 408.65625 C422.73378418 409.24615723 421.87381836 409.83606445 420.98779297 410.44384766 C417.80941113 412.63764615 414.66898498 414.87984621 411.53515625 417.13671875 C412.97684083 421.57580404 415.42298706 424.63977822 418.47265625 428.07421875 C422.40737525 432.61153483 426.22596946 437.20603932 429.91015625 441.94921875 C434.42302176 447.7479952 439.03155423 453.46129355 443.68115234 459.15087891 C447.81364298 464.21870185 451.86640659 469.34410555 455.84570312 474.53320312 C457.81446977 477.07324995 459.61921555 479.20319641 462.14992046 481.20458508 C465.56973815 485.40851437 465.21820928 488.76927073 465.13642883 494.03913879 C465.14070892 495.04146042 465.14498901 496.04378204 465.1493988 497.07647705 C465.15768269 500.44962849 465.1300478 503.82154187 465.1027832 507.19458008 C465.10125176 509.64820408 465.10191859 512.10183029 465.10460949 514.5554533 C465.10562486 520.46600507 465.08418978 526.37621486 465.05210285 532.28665538 C465.01609608 539.12387543 465.0121288 545.96090517 465.00817871 552.79821777 C464.98192927 570.84861165 464.91212364 588.89892091 464.84765625 606.94921875 C464.74453125 647.27109375 464.64140625 687.59296875 464.53515625 729.13671875 C377.74515625 729.13671875 290.95515625 729.13671875 201.53515625 729.13671875 C201.53515625 736.72671875 201.53515625 744.31671875 201.53515625 752.13671875 C188.99515625 752.13671875 176.45515625 752.13671875 163.53515625 752.13671875 C163.53515625 642.57671875 163.53515625 533.01671875 163.53515625 420.13671875 C147.36515625 420.13671875 131.19515625 420.13671875 114.53515625 420.13671875 C114.53515625 355.12671875 114.53515625 290.11671875 114.53515625 223.13671875 C112.06015625 222.14671875 112.06015625 222.14671875 109.53515625 221.13671875 C107.72436523 220.03027344 107.72436523 220.03027344 106.03125 218.80859375 C105.05998169 218.11467529 105.05998169 218.11467529 104.0690918 217.40673828 C103.37726807 216.90513184 102.68544434 216.40352539 101.97265625 215.88671875 C100.44697504 214.79506897 98.92091795 213.70394437 97.39453125 212.61328125 C96.20053711 211.75718262 96.20053711 211.75718262 94.98242188 210.88378906 C90.91605798 207.98086608 86.81883595 205.1223387 82.72265625 202.26171875 C81.02859051 201.07690201 79.33458051 199.89200558 77.640625 198.70703125 C76.79677246 198.11696289 75.95291992 197.52689453 75.08349609 196.91894531 C70.89972563 193.99295141 66.71753031 191.06470811 62.53515625 188.13671875 C61.70822266 187.55792969 60.88128906 186.97914063 60.02929688 186.3828125 C55.89900609 183.49193088 51.76925202 180.60028856 47.640625 177.70703125 C38.55123542 171.33840437 29.45413605 164.98088748 20.34765625 158.63671875 C19.40365967 157.97816895 18.45966309 157.31961914 17.48706055 156.64111328 C15.69345898 155.39262748 13.89662738 154.14876583 12.09619141 152.91015625 C10.38514599 151.72531031 8.68676637 150.52196717 7.00146484 149.30078125 C6.2120752 148.74132812 5.42268555 148.181875 4.609375 147.60546875 C3.5723645 146.85426758 3.5723645 146.85426758 2.5144043 146.08789062 C0.60478693 144.96659064 0.60478693 144.96659064 -1.42456055 145.28833008 C-3.93600463 146.33263643 -5.96035564 147.67164113 -8.18359375 149.2421875 C-9.10551514 149.88881348 -10.02743652 150.53543945 -10.97729492 151.20166016 C-11.96318604 151.90210449 -12.94907715 152.60254883 -13.96484375 153.32421875 C-14.99005127 154.04528809 -16.01525879 154.76635742 -17.0715332 155.50927734 C-19.18689547 156.99746042 -21.30057554 158.48803742 -23.41259766 159.98095703 C-27.00400806 162.51752349 -30.60653505 165.03785621 -34.2109375 167.5559082 C-36.66549733 169.27090916 -39.11818999 170.98854754 -41.5703125 172.70703125 C-46.53388954 176.18540444 -51.49924388 179.66123413 -56.46484375 183.13671875 C-58.13151806 184.3033745 -59.79818473 185.47004116 -61.46484375 186.63671875 C-71.46484374 193.63671875 -71.46484374 193.63671875 -73.96801758 195.38891602 C-75.62413544 196.54821471 -77.280223 197.70755672 -78.9362793 198.86694336 C-83.264087 201.89670725 -87.5925178 204.92557558 -91.921875 207.953125 C-93.26668945 208.89381836 -93.26668945 208.89381836 -94.63867188 209.85351562 C-96.3442046 211.04650484 -98.04992108 212.23923143 -99.75585938 213.43164062 C-100.53251953 213.97498047 -101.30917969 214.51832031 -102.109375 215.078125 C-102.84623535 215.59262207 -103.5830957 216.10711914 -104.34228516 216.63720703 C-105.74445981 217.62779327 -107.13765808 218.6312237 -108.52099609 219.64794922 C-113.26861262 223.13671875 -113.26861262 223.13671875 -115.46484375 223.13671875 C-115.46484375 288.14671875 -115.46484375 353.15671875 -115.46484375 420.13671875 C-131.63484375 420.13671875 -147.80484375 420.13671875 -164.46484375 420.13671875 C-164.46484375 529.69671875 -164.46484375 639.25671875 -164.46484375 752.13671875 C-177.00484375 752.13671875 -189.54484375 752.13671875 -202.46484375 752.13671875 C-202.46484375 744.54671875 -202.46484375 736.95671875 -202.46484375 729.13671875 C-288.59484375 729.13671875 -374.72484375 729.13671875 -463.46484375 729.13671875 C-463.91859375 689.06234375 -464.37234375 648.98796875 -464.83984375 607.69921875 C-465.01950684 595.06326416 -465.19916992 582.42730957 -465.38427734 569.40844727 C-465.51098633 553.93347168 -465.51098633 553.93347168 -465.55239868 546.68028259 C-465.58606902 541.63249733 -465.65921047 536.58697156 -465.75674438 531.5400238 C-465.88014456 525.08657497 -465.93475515 518.63586244 -465.94123387 512.18127429 C-465.95501071 509.82245392 -465.99222284 507.46361554 -466.05654025 505.10563195 C-466.41148587 491.55004835 -465.34711502 482.72833012 -455.85775316 472.55695111 C-454.65005578 471.32925842 -453.43166098 470.1119798 -452.20183682 468.90645301 C-449.50788023 466.16171709 -447.21693687 463.13859042 -444.90234375 460.07421875 C-440.9883413 455.04083747 -436.99647157 450.07629092 -432.96484375 445.13671875 C-428.74170438 439.95622579 -424.54319956 434.75830718 -420.40234375 429.51171875 C-419.96148437 428.95613281 -419.520625 428.40054687 -419.06640625 427.828125 C-416.34585891 424.36637591 -413.86227501 420.82422272 -411.46484375 417.13671875 C-412.13902344 416.915 -412.81320312 416.69328125 -413.5078125 416.46484375 C-417.33583722 414.74551957 -420.43852685 412.40519576 -423.77734375 409.88671875 C-424.43871338 409.39453857 -425.10008301 408.9023584 -425.78149414 408.39526367 C-427.67985089 406.98087949 -429.57286452 405.55961654 -431.46484375 404.13671875 C-432.37492187 403.45738281 -433.285 402.77804687 -434.22265625 402.078125 C-435.97387286 400.76942011 -437.72016613 399.45412838 -439.46484375 398.13671875 C-438.11375409 395.17345931 -436.57777727 392.9288671 -434.40234375 390.51171875 C-433.78230469 389.81820313 -433.16226562 389.1246875 -432.5234375 388.41015625 C-431.50443359 387.28480469 -431.50443359 387.28480469 -430.46484375 386.13671875 C-429.73394531 385.32460938 -429.00304687 384.5125 -428.25 383.67578125 C-426.71859858 381.97422412 -425.1860339 380.27371324 -423.65234375 378.57421875 C-421.73930226 376.44254394 -419.84596763 374.29652765 -417.96484375 372.13671875 C-414.57231282 368.24159064 -411.11290174 364.40889112 -407.65234375 360.57421875 C-405.16789765 357.80583595 -402.72102362 355.00693967 -400.28125 352.19921875 C-398.18404966 349.81788159 -396.04198672 347.47996715 -393.90234375 345.13671875 C-390.14865031 340.98451676 -386.71125244 336.69442193 -383.46484375 332.13671875 C-384.49158203 331.79447266 -384.49158203 331.79447266 -385.5390625 331.4453125 C-389.16152187 329.82512039 -392.13897654 327.58681009 -395.27734375 325.19921875 C-400.70173358 321.14458346 -406.18450519 317.20586086 -411.77734375 313.38671875 C-412.44419189 312.92990723 -413.11104004 312.4730957 -413.7980957 312.00244141 C-416.75688372 309.97802683 -419.72177558 307.96367035 -422.6953125 305.9609375 C-424.06623047 305.02701172 -424.06623047 305.02701172 -425.46484375 304.07421875 C-426.24859375 303.54699219 -427.03234375 303.01976562 -427.83984375 302.4765625 C-428.64421875 301.81333984 -428.64421875 301.81333984 -429.46484375 301.13671875 C-429.46484375 300.47671875 -429.46484375 299.81671875 -429.46484375 299.13671875 C-427.67089844 297.66308594 -427.67089844 297.66308594 -425.13671875 295.93359375 C-424.20190674 295.29019043 -423.26709473 294.64678711 -422.30395508 293.98388672 C-420.77484497 292.94578857 -420.77484497 292.94578857 -419.21484375 291.88671875 C-417.08831282 290.42611437 -414.96201473 288.96517096 -412.8359375 287.50390625 C-411.7619873 286.76881836 -410.68803711 286.03373047 -409.58154297 285.27636719 C-405.1260353 282.21761196 -400.7003338 279.1172224 -396.27734375 276.01171875 C-394.63811241 274.86315054 -392.99878957 273.71471292 -391.359375 272.56640625 C-390.15015381 271.71900879 -390.15015381 271.71900879 -388.91650391 270.85449219 C-384.76697947 267.94709785 -380.61582069 265.04203874 -376.46484375 262.13671875 C-374.79816944 260.970063 -373.13150277 259.80339634 -371.46484375 258.63671875 C-161.46484375 111.63671875 -161.46484375 111.63671875 -158.96411133 109.88623047 C-157.29985547 108.72123511 -155.63563014 107.55619615 -153.97143555 106.39111328 C-149.76813452 103.44851464 -145.56428194 100.50670971 -141.359375 97.56640625 C-133.55045707 92.10495444 -125.74638995 86.63711943 -117.96484375 81.13671875 C-109.33396305 75.03596436 -100.67495321 68.97573362 -92.01318359 62.91894531 C-87.82941315 59.99295142 -83.64719851 57.06473565 -79.46484375 54.13671875 C-77.79818473 52.97004116 -76.13151806 51.8033745 -74.46484375 50.63671875 C-73.63984375 50.05921875 -72.81484375 49.48171875 -71.96484375 48.88671875 C-44.46484375 29.63671875 -44.46484375 29.63671875 -41.96166992 27.88452148 C-40.30555206 26.72522279 -38.6494645 25.56588078 -36.9934082 24.40649414 C-32.6656005 21.37673025 -28.3371697 18.34786192 -24.0078125 15.3203125 C-23.11126953 14.69318359 -22.21472656 14.06605469 -21.29101562 13.41992188 C-19.5854829 12.22693266 -17.87976642 11.03420607 -16.17382812 9.84179688 C-15.00883789 9.02678711 -15.00883789 9.02678711 -13.8203125 8.1953125 C-13.07958496 7.68210449 -12.33885742 7.16889648 -11.57568359 6.64013672 C-10.19666999 5.65795238 -8.8408826 4.64207921 -7.51416016 3.59033203 C-3.15347876 0.17491562 -3.15347876 0.17491562 0 0 Z " fill="#CDD0D7" transform="translate(464.46484375,-0.13671875)"/>
<path d="M0 0 C3.71127006 1.66406716 6.83175439 3.91672385 10.09765625 6.32421875 C11.62323985 7.42511421 13.14930111 8.52534799 14.67578125 9.625 C15.47177734 10.2020166 16.26777344 10.7790332 17.08789062 11.37353516 C21.14430101 14.29606067 25.24708918 17.15165261 29.34765625 20.01171875 C31.04179872 21.19642577 32.73580815 22.38132305 34.4296875 23.56640625 C35.27354004 24.15647461 36.11739258 24.74654297 36.98681641 25.35449219 C41.17058685 28.28048608 45.35280149 31.20870185 49.53515625 34.13671875 C51.20181527 35.30339634 52.86848194 36.470063 54.53515625 37.63671875 C91.20182292 63.30338542 127.86848958 88.97005208 164.53515625 114.63671875 C165.7730188 115.50321045 165.7730188 115.50321045 167.03588867 116.38720703 C168.70014453 117.55220239 170.36436986 118.71724135 172.02856445 119.88232422 C176.23186548 122.82492286 180.43571806 125.76672779 184.640625 128.70703125 C193.1432609 134.65366004 201.63606331 140.61350777 210.10888672 146.60253906 C218.04995433 152.21257284 226.01880944 157.7828211 233.98681641 163.35449219 C238.17058685 166.28048608 242.35280149 169.20870185 246.53515625 172.13671875 C248.20181527 173.30339634 249.86848194 174.470063 251.53515625 175.63671875 C316.53515625 221.13671875 316.53515625 221.13671875 381.53515625 266.63671875 C382.36088135 267.21470215 383.18660645 267.79268555 384.03735352 268.38818359 C385.69678781 269.54983626 387.35613091 270.7116192 389.01538086 271.87353516 C393.29194783 274.8680145 397.57028361 277.85991675 401.8515625 280.84765625 C416.44065958 291.03242139 416.44065958 291.03242139 423.22265625 295.88671875 C424.46595703 296.77617188 424.46595703 296.77617188 425.734375 297.68359375 C427.53515625 299.13671875 427.53515625 299.13671875 428.53515625 301.13671875 C427.15070313 302.08417969 427.15070313 302.08417969 425.73828125 303.05078125 C416.99665016 309.0426707 408.29379023 315.08693463 399.62792969 321.18798828 C394.31643703 324.91942528 388.95292776 328.56132984 383.53515625 332.13671875 C385.27132554 335.82919714 387.42965799 338.39269305 390.22265625 341.38671875 C393.21995241 344.62487386 396.20570234 347.86600427 399.09765625 351.19921875 C401.71217567 354.20745403 404.36467281 357.17802124 407.03515625 360.13671875 C410.29906473 363.7534822 413.52306574 367.40061483 416.72265625 371.07421875 C418.80726789 373.44636304 420.91944269 375.7922794 423.03515625 378.13671875 C438.53515625 395.32666764 438.53515625 395.32666764 438.53515625 398.13671875 C436.81030273 399.56958008 436.81030273 399.56958008 434.40625 401.21875 C433.53548828 401.82138672 432.66472656 402.42402344 431.76757812 403.04492188 C430.84525391 403.67333984 429.92292969 404.30175781 428.97265625 404.94921875 C427.17952456 406.18465937 425.38655294 407.42033237 423.59375 408.65625 C422.73378418 409.24615723 421.87381836 409.83606445 420.98779297 410.44384766 C417.80941113 412.63764615 414.66898498 414.87984621 411.53515625 417.13671875 C412.97684083 421.57580404 415.42298706 424.63977822 418.47265625 428.07421875 C422.40737525 432.61153483 426.22596946 437.20603932 429.91015625 441.94921875 C434.42302176 447.7479952 439.03155423 453.46129355 443.68115234 459.15087891 C447.81364298 464.21870185 451.86640659 469.34410555 455.84570312 474.53320312 C458.570242 478.04832582 461.34792268 480.94948518 464.53515625 484.13671875 C464.53515625 502.61671875 464.53515625 521.09671875 464.53515625 540.13671875 C377.74515625 540.13671875 290.95515625 540.13671875 201.53515625 540.13671875 C201.53515625 521.98671875 201.53515625 503.83671875 201.53515625 485.13671875 C308.45515625 484.64171875 308.45515625 484.64171875 417.53515625 484.13671875 C408.64016728 472.79528024 408.64016728 472.79528024 399.53515625 461.63671875 C393.88040864 454.80961705 388.35533602 447.89477055 382.91015625 440.89990234 C380.39889144 437.67966895 377.8720906 434.47163066 375.34765625 431.26171875 C374.41660486 430.07687149 373.48560923 428.8919804 372.5546875 427.70703125 C371.88824219 426.85882813 371.22179687 426.010625 370.53515625 425.13671875 C371.59863281 424.07517578 371.59863281 424.07517578 372.68359375 422.9921875 C374.57081924 421.105627 376.44912275 419.21123167 378.32421875 417.3125 C379.26951866 416.35806045 380.21483123 415.40363343 381.16015625 414.44921875 C381.63710938 413.96388672 382.1140625 413.47855469 382.60546875 412.97851562 C384.82768671 410.7408656 386.89884761 408.89425785 389.53515625 407.13671875 C388.16883516 404.13346862 386.59226003 401.85713172 384.39453125 399.40234375 C383.77255859 398.70689453 383.15058594 398.01144531 382.50976562 397.29492188 C378.65187916 393.07833973 374.72484549 388.92889646 370.7890625 384.78515625 C370.15355469 384.11226563 369.51804687 383.439375 368.86328125 382.74609375 C368.29512695 382.14764648 367.72697266 381.54919922 367.14160156 380.93261719 C363.8926481 377.30050447 362.13789334 375.29701972 362.34082031 370.26733398 C362.36944153 369.30210312 362.39806274 368.33687225 362.42755127 367.34239197 C362.46821716 366.30385574 362.50888306 365.26531952 362.55078125 364.1953125 C362.58699897 361.9798746 362.61942894 359.76437215 362.6484375 357.54882812 C362.70574912 354.06580018 362.78451288 350.58969551 362.92919922 347.10913086 C363.9126042 334.58095683 363.9126042 334.58095683 360.1265564 323.04586792 C356.67267069 319.55259829 352.69214027 317.2041918 348.3147583 315.03305054 C346.13947971 313.93742843 344.22658907 312.59848896 342.2734375 311.1484375 C341.1330321 310.37145977 339.9911309 309.59667237 338.84765625 308.82421875 C337.5046806 307.90832542 336.16226008 306.99161773 334.8203125 306.07421875 C334.12824707 305.60113281 333.43618164 305.12804687 332.72314453 304.640625 C328.72638272 301.89346446 324.75630619 299.10821682 320.78515625 296.32421875 C319.94509033 295.73535889 319.10502441 295.14649902 318.23950195 294.53979492 C316.52608046 293.33839292 314.81278354 292.13681325 313.09960938 290.93505859 C308.913425 287.99946891 304.72416033 285.06828266 300.53515625 282.13671875 C298.86847428 280.97007394 297.20180763 279.80340725 295.53515625 278.63671875 C294.71015625 278.05921875 293.88515625 277.48171875 293.03515625 276.88671875 C210.53515625 219.13671875 128.03515625 161.38671875 15.18359375 82.390625 C14.42788086 81.86871582 13.67216797 81.34680664 12.89355469 80.80908203 C11.20308454 79.6103532 9.5425521 78.36896982 7.90332031 77.10107422 C7.0315918 76.44123535 6.15986328 75.78139648 5.26171875 75.1015625 C4.47619629 74.48788818 3.69067383 73.87421387 2.88134766 73.24194336 C0.56751924 71.85086158 0.56751924 71.85086158 -1.95922852 72.7512207 C-4.51386309 74.16382435 -6.89449027 75.65831158 -9.28125 77.33984375 C-10.19994873 77.98324707 -11.11864746 78.62665039 -12.06518555 79.28955078 C-13.04269775 79.98161621 -14.02020996 80.67368164 -15.02734375 81.38671875 C-16.04803955 82.10327637 -17.06873535 82.81983398 -18.12036133 83.55810547 C-20.22456963 85.0357331 -22.32734833 86.51539857 -24.42871094 87.99707031 C-28.01577847 90.52497799 -31.61168528 93.04004669 -35.20874023 95.55371094 C-37.66382244 97.26974202 -40.1173218 98.98801203 -42.5703125 100.70703125 C-47.53388954 104.18540444 -52.49924388 107.66123413 -57.46484375 111.13671875 C-59.13151806 112.3033745 -60.79818473 113.47004116 -62.46484375 114.63671875 C-144.96484375 172.38671875 -227.46484375 230.13671875 -314.96630859 291.38769531 C-316.62815366 292.55101933 -318.2899378 293.71443039 -319.95166016 294.87792969 C-324.19159467 297.84646591 -328.43267103 300.81334819 -332.67578125 303.77734375 C-334.3971453 304.98045461 -336.11849959 306.18357943 -337.83984375 307.38671875 C-338.66726074 307.96437988 -339.49467773 308.54204102 -340.34716797 309.13720703 C-344.17132981 311.81160091 -347.98288628 314.50012445 -351.76171875 317.23828125 C-352.41350098 317.70975586 -353.0652832 318.18123047 -353.73681641 318.66699219 C-354.93753792 319.53834582 -356.13533172 320.41375395 -357.32958984 321.29394531 C-361.24535904 324.13671875 -361.24535904 324.13671875 -363.46484375 324.13671875 C-363.44485825 324.75344452 -363.42487274 325.37017029 -363.40428162 326.00558472 C-363.20416573 332.46222684 -363.06902579 338.91797994 -362.97045898 345.37695312 C-362.92537751 347.7825909 -362.86409186 350.18798453 -362.78588867 352.59277344 C-362.0700892 375.18022359 -362.0700892 375.18022359 -367.61328125 381.3515625 C-369.19165482 382.66151154 -370.80674032 383.92927408 -372.46484375 385.13671875 C-373.59097729 386.30124498 -374.69216797 387.49081463 -375.7578125 388.7109375 C-376.72229751 389.74903134 -377.68713377 390.78679895 -378.65234375 391.82421875 C-382.69166182 396.18091181 -386.65008339 400.58019944 -390.46484375 405.13671875 C-387.00514657 413.0171401 -378.88643618 418.6715337 -372.46484375 424.13671875 C-373.06392206 427.3900095 -374.10663731 429.24336311 -376.23828125 431.75390625 C-376.80998047 432.43582031 -377.38167969 433.11773437 -377.97070312 433.8203125 C-378.58751953 434.54347656 -379.20433594 435.26664062 -379.83984375 436.01171875 C-381.13021503 437.54968411 -382.41926268 439.08876093 -383.70703125 440.62890625 C-384.34737305 441.39299805 -384.98771484 442.15708984 -385.64746094 442.94433594 C-388.14846972 445.96140457 -390.56381669 449.03990605 -392.96484375 452.13671875 C-397.69797938 458.22407925 -402.58212752 464.17889211 -407.51953125 470.1015625 C-408.07511719 470.77058594 -408.63070312 471.43960937 -409.203125 472.12890625 C-409.68821533 472.7101123 -410.17330566 473.29131836 -410.6730957 473.89013672 C-413.34855172 477.24475537 -415.89032414 480.70402593 -418.46484375 484.13671875 C-311.54484375 484.63171875 -311.54484375 484.63171875 -202.46484375 485.13671875 C-202.46484375 503.28671875 -202.46484375 521.43671875 -202.46484375 540.13671875 C-288.26484375 540.13671875 -374.06484375 540.13671875 -462.46484375 540.13671875 C-462.46484375 541.78671875 -462.46484375 543.43671875 -462.46484375 545.13671875 C-376.66484375 545.13671875 -290.86484375 545.13671875 -202.46484375 545.13671875 C-202.46484375 574.50671875 -202.46484375 603.87671875 -202.46484375 634.13671875 C-288.26484375 634.13671875 -374.06484375 634.13671875 -462.46484375 634.13671875 C-462.46484375 635.78671875 -462.46484375 637.43671875 -462.46484375 639.13671875 C-376.66484375 639.13671875 -290.86484375 639.13671875 -202.46484375 639.13671875 C-202.46484375 666.85671875 -202.46484375 694.57671875 -202.46484375 723.13671875 C-288.59484375 723.13671875 -374.72484375 723.13671875 -463.46484375 723.13671875 C-463.91859375 684.05234375 -464.37234375 644.96796875 -464.83984375 604.69921875 C-465.01950684 592.37650635 -465.19916992 580.05379395 -465.38427734 567.35766602 C-465.51098633 552.2635498 -465.51098633 552.2635498 -465.55239868 545.18833923 C-465.5860624 540.26552711 -465.65919302 535.34503339 -465.75674438 530.42308044 C-465.880181 524.12868914 -465.93475674 517.83710389 -465.94123387 511.54154384 C-465.95500642 509.24132931 -465.99220221 506.94109578 -466.05654025 504.64173996 C-466.4168012 491.22910432 -465.21599847 482.64746464 -455.85775316 472.58510643 C-454.64975625 471.3513367 -453.43135308 470.1276538 -452.20183682 468.91532791 C-449.51385295 466.16294345 -447.21896599 463.13898173 -444.90234375 460.07421875 C-440.98815718 455.04097632 -436.9964757 450.07629598 -432.96484375 445.13671875 C-428.74170438 439.95622579 -424.54319956 434.75830718 -420.40234375 429.51171875 C-419.96148437 428.95613281 -419.520625 428.40054687 -419.06640625 427.828125 C-416.34585891 424.36637591 -413.86227501 420.82422272 -411.46484375 417.13671875 C-412.13902344 416.915 -412.81320312 416.69328125 -413.5078125 416.46484375 C-417.33583722 414.74551957 -420.43852685 412.40519576 -423.77734375 409.88671875 C-424.43871338 409.39453857 -425.10008301 408.9023584 -425.78149414 408.39526367 C-427.67985089 406.98087949 -429.57286452 405.55961654 -431.46484375 404.13671875 C-432.37492187 403.45738281 -433.285 402.77804687 -434.22265625 402.078125 C-435.97387286 400.76942011 -437.72016613 399.45412838 -439.46484375 398.13671875 C-438.11375409 395.17345931 -436.57777727 392.9288671 -434.40234375 390.51171875 C-433.78230469 389.81820313 -433.16226562 389.1246875 -432.5234375 388.41015625 C-431.50443359 387.28480469 -431.50443359 387.28480469 -430.46484375 386.13671875 C-429.73394531 385.32460938 -429.00304687 384.5125 -428.25 383.67578125 C-426.71859858 381.97422412 -425.1860339 380.27371324 -423.65234375 378.57421875 C-421.73930226 376.44254394 -419.84596763 374.29652765 -417.96484375 372.13671875 C-414.57231282 368.24159064 -411.11290174 364.40889112 -407.65234375 360.57421875 C-405.16789765 357.80583595 -402.72102362 355.00693967 -400.28125 352.19921875 C-398.18404966 349.81788159 -396.04198672 347.47996715 -393.90234375 345.13671875 C-390.14865031 340.98451676 -386.71125244 336.69442193 -383.46484375 332.13671875 C-384.49158203 331.79447266 -384.49158203 331.79447266 -385.5390625 331.4453125 C-389.16152187 329.82512039 -392.13897654 327.58681009 -395.27734375 325.19921875 C-400.70173358 321.14458346 -406.18450519 317.20586086 -411.77734375 313.38671875 C-412.44419189 312.92990723 -413.11104004 312.4730957 -413.7980957 312.00244141 C-416.75688372 309.97802683 -419.72177558 307.96367035 -422.6953125 305.9609375 C-424.06623047 305.02701172 -424.06623047 305.02701172 -425.46484375 304.07421875 C-426.24859375 303.54699219 -427.03234375 303.01976562 -427.83984375 302.4765625 C-428.64421875 301.81333984 -428.64421875 301.81333984 -429.46484375 301.13671875 C-429.46484375 300.47671875 -429.46484375 299.81671875 -429.46484375 299.13671875 C-427.67089844 297.66308594 -427.67089844 297.66308594 -425.13671875 295.93359375 C-424.20190674 295.29019043 -423.26709473 294.64678711 -422.30395508 293.98388672 C-420.77484497 292.94578857 -420.77484497 292.94578857 -419.21484375 291.88671875 C-417.08831282 290.42611437 -414.96201473 288.96517096 -412.8359375 287.50390625 C-411.7619873 286.76881836 -410.68803711 286.03373047 -409.58154297 285.27636719 C-405.1260353 282.21761196 -400.7003338 279.1172224 -396.27734375 276.01171875 C-394.63811241 274.86315054 -392.99878957 273.71471292 -391.359375 272.56640625 C-390.15015381 271.71900879 -390.15015381 271.71900879 -388.91650391 270.85449219 C-384.76697947 267.94709785 -380.61582069 265.04203874 -376.46484375 262.13671875 C-374.79816944 260.970063 -373.13150277 259.80339634 -371.46484375 258.63671875 C-161.46484375 111.63671875 -161.46484375 111.63671875 -158.96411133 109.88623047 C-157.29985547 108.72123511 -155.63563014 107.55619615 -153.97143555 106.39111328 C-149.76813452 103.44851464 -145.56428194 100.50670971 -141.359375 97.56640625 C-133.55045707 92.10495444 -125.74638995 86.63711943 -117.96484375 81.13671875 C-109.33396305 75.03596436 -100.67495321 68.97573362 -92.01318359 62.91894531 C-87.82941315 59.99295142 -83.64719851 57.06473565 -79.46484375 54.13671875 C-77.79818473 52.97004116 -76.13151806 51.8033745 -74.46484375 50.63671875 C-73.63984375 50.05921875 -72.81484375 49.48171875 -71.96484375 48.88671875 C-44.46484375 29.63671875 -44.46484375 29.63671875 -41.96166992 27.88452148 C-40.30555206 26.72522279 -38.6494645 25.56588078 -36.9934082 24.40649414 C-32.6656005 21.37673025 -28.3371697 18.34786192 -24.0078125 15.3203125 C-23.11126953 14.69318359 -22.21472656 14.06605469 -21.29101562 13.41992188 C-19.5854829 12.22693266 -17.87976642 11.03420607 -16.17382812 9.84179688 C-15.00883789 9.02678711 -15.00883789 9.02678711 -13.8203125 8.1953125 C-13.07958496 7.68210449 -12.33885742 7.16889648 -11.57568359 6.64013672 C-10.19666999 5.65795238 -8.8408826 4.64207921 -7.51416016 3.59033203 C-3.15347876 0.17491562 -3.15347876 0.17491562 0 0 Z " fill="#354062" transform="translate(464.46484375,-0.13671875)"/>
<path d="M0 0 C3.7151371 1.54001145 6.73216165 3.75168765 9.95703125 6.1328125 C11.47839062 7.2315441 13.00057066 8.32913999 14.5234375 9.42578125 C15.33828613 10.01536621 16.15313477 10.60495117 16.99267578 11.21240234 C21.58911302 14.51043057 26.24476894 17.72313269 30.89453125 20.9453125 C32.86612061 22.31476562 34.8374749 23.68455724 36.80859375 25.0546875 C37.77571289 25.72693359 38.74283203 26.39917969 39.73925781 27.09179688 C46.54709576 31.82992112 53.33785849 36.59248526 60.13037109 41.35253906 C65.10721624 44.83960164 70.08595248 48.32396538 75.06518555 51.80761719 C79.33410936 54.79473174 83.60064763 57.78516473 87.86328125 60.78125 C88.73726562 61.39484375 89.61125 62.0084375 90.51171875 62.640625 C92.15315193 63.79312064 93.79385212 64.94666142 95.43359375 66.1015625 C96.57441406 66.90207031 96.57441406 66.90207031 97.73828125 67.71875 C98.45679638 68.24277405 99.17531151 68.7667981 99.91559982 69.30670166 C102.56545889 71.15572903 102.56545889 71.15572903 105.63216019 72.47991943 C113.64195855 76.55846492 113.64195855 76.55846492 115.26587582 80.89752579 C116.38433138 86.55688279 116.08421647 92.32537446 115.94433594 98.0625 C115.94094856 100.00453989 115.94285594 101.94659513 115.949646 103.8886261 C115.95308336 109.14760339 115.88264083 114.4032832 115.79875851 119.66149521 C115.72363923 125.16128473 115.71668587 130.66115358 115.70245361 136.16137695 C115.66518535 146.57059099 115.56675473 156.97828902 115.44625974 167.38683605 C115.31203643 179.23906023 115.24612884 191.09135759 115.18591452 202.94415283 C115.06054958 227.32057301 114.84052605 251.69491548 114.58203125 276.0703125 C130.75203125 276.0703125 146.92203125 276.0703125 163.58203125 276.0703125 C163.58203125 385.6303125 163.58203125 495.1903125 163.58203125 608.0703125 C155.33203125 608.0703125 147.08203125 608.0703125 138.58203125 608.0703125 C138.58203125 558.5703125 138.58203125 509.0703125 138.58203125 458.0703125 C122.74203125 462.0303125 106.90203125 465.9903125 90.58203125 470.0703125 C81.67203125 472.0503125 81.67203125 472.0503125 72.58203125 474.0703125 C65.51807415 475.79458549 58.4757586 477.54433874 51.46484375 479.46875 C50.16921509 479.82078491 50.16921509 479.82078491 48.84741211 480.17993164 C47.15866703 480.64038216 45.47187181 481.10805891 43.78735352 481.58374023 C37.91638922 483.18176516 37.91638922 483.18176516 34.58203125 482.0703125 C33.109375 480.25 33.109375 480.25 31.51953125 477.9453125 C24.93847237 469.26714471 16.77386497 465.33692587 6.58203125 462.0703125 C6.58203125 456.1303125 6.58203125 450.1903125 6.58203125 444.0703125 C11.86203125 444.0703125 17.14203125 444.0703125 22.58203125 444.0703125 C22.58203125 439.4503125 22.58203125 434.8303125 22.58203125 430.0703125 C17.30203125 430.0703125 12.02203125 430.0703125 6.58203125 430.0703125 C6.58203125 426.4403125 6.58203125 422.8103125 6.58203125 419.0703125 C1.63203125 419.0703125 -3.31796875 419.0703125 -8.41796875 419.0703125 C-8.41796875 422.7003125 -8.41796875 426.3303125 -8.41796875 430.0703125 C-13.69796875 430.0703125 -18.97796875 430.0703125 -24.41796875 430.0703125 C-24.41796875 434.6903125 -24.41796875 439.3103125 -24.41796875 444.0703125 C-19.13796875 444.0703125 -13.85796875 444.0703125 -8.41796875 444.0703125 C-8.41796875 450.0103125 -8.41796875 455.9503125 -8.41796875 462.0703125 C-10.02671875 462.5859375 -11.63546875 463.1015625 -13.29296875 463.6328125 C-24.94371425 467.91573437 -33.28023825 475.26535249 -38.73046875 486.4453125 C-40.55143938 490.78350723 -41.16716699 495.12214278 -41.6328125 499.78515625 C-42.41796875 502.0703125 -42.41796875 502.0703125 -44.46484375 503.26953125 C-48.1972567 504.28162735 -51.94668239 505.15251917 -55.73046875 505.9453125 C-68.70627405 508.68584071 -81.5252757 512.08691736 -94.35864258 515.41992188 C-126.3544425 523.72639146 -126.3544425 523.72639146 -140.41796875 526.0703125 C-140.41796875 553.1303125 -140.41796875 580.1903125 -140.41796875 608.0703125 C-148.33796875 608.0703125 -156.25796875 608.0703125 -164.41796875 608.0703125 C-164.41796875 498.5103125 -164.41796875 388.9503125 -164.41796875 276.0703125 C-148.24796875 276.0703125 -132.07796875 276.0703125 -115.41796875 276.0703125 C-115.56721802 267.22085815 -115.56721802 267.22085815 -115.71948242 258.19262695 C-116.03442947 238.69142441 -116.24519192 219.19012111 -116.40240002 199.68703938 C-116.50025048 187.86287347 -116.63356507 176.0411217 -116.85131836 164.21850586 C-117.04109372 153.90997227 -117.16336354 143.603187 -117.20565015 133.2929551 C-117.23036189 127.83590066 -117.28812231 122.38384597 -117.42683983 116.92840004 C-118.30591505 81.0030978 -118.30591505 81.0030978 -111.2559967 73.579422 C-107.35138014 70.49757615 -103.30003171 68.51106424 -98.61669922 66.88496017 C-95.67673087 65.79567778 -93.3616405 64.13591757 -90.890625 62.23046875 C-90.15263672 61.71291016 -89.41464844 61.19535156 -88.65429688 60.66210938 C-87.57825195 59.90510742 -87.57825195 59.90510742 -86.48046875 59.1328125 C-84.80470779 57.95700233 -83.12892592 56.78122196 -81.453125 55.60546875 C-80.20619873 54.72979248 -80.20619873 54.72979248 -78.93408203 53.83642578 C-74.76505013 50.91009386 -70.59128355 47.99053151 -66.41796875 45.0703125 C-64.75127914 43.90367861 -63.08461248 42.73701193 -61.41796875 41.5703125 C-51.41796875 34.5703125 -51.41796875 34.5703125 -48.91650391 32.81933594 C-47.25465884 31.65601192 -45.5928747 30.49260086 -43.93115234 29.32910156 C-39.69121783 26.36056534 -35.45014147 23.39368306 -31.20703125 20.4296875 C-29.92131226 19.53068726 -29.92131226 19.53068726 -28.60961914 18.61352539 C-26.9173603 17.43121385 -25.22386461 16.2506704 -23.52905273 15.07202148 C-19.71713713 12.41442637 -15.93669078 9.73196356 -12.2265625 6.93359375 C-11.26919189 6.21961426 -11.26919189 6.21961426 -10.29248047 5.49121094 C-9.12420221 4.61539576 -7.96483178 3.72750701 -6.81689453 2.82519531 C-4.50425884 1.09999966 -2.92083343 0.08493538 0 0 Z " fill="#C4C9D4" transform="translate(464.41796875,143.9296875)"/>
<path d="M0 0 C108.24 0 216.48 0 328 0 C328 75.9 328 151.8 328 230 C219.76 230 111.52 230 0 230 C0 154.1 0 78.2 0 0 Z " fill="#FCFCE9" transform="translate(300,786)"/>
<path d="M0 0 C1.18415785 0.00056958 1.18415785 0.00056958 2.39223808 0.00115067 C3.29991198 -0.00084038 4.20758588 -0.00283143 5.14276505 -0.00488281 C6.65586562 -0.00051355 6.65586562 -0.00051355 8.19953388 0.00394398 C9.26211192 0.00308955 10.32468996 0.00223513 11.41946733 0.00135481 C15.00945719 -0.00030315 18.59940117 0.00522653 22.18938679 0.01067311 C24.75107806 0.01095494 27.31276941 0.01079733 29.87446064 0.0102306 C35.40476108 0.01000227 40.93504653 0.01285381 46.46534389 0.01846844 C54.46131194 0.02658108 62.45727427 0.02919842 70.45324599 0.03045643 C83.42486646 0.03264732 96.39648066 0.03930841 109.36809772 0.04875904 C121.97193855 0.0579322 134.57577767 0.0650135 147.17962116 0.06926686 C147.95597729 0.06952958 148.73233341 0.0697923 149.53221548 0.07006299 C153.42680336 0.07136799 157.32139126 0.0726317 161.21597916 0.07387489 C193.54688296 0.08424866 225.87777511 0.10268759 258.20867389 0.1241985 C258.20867389 18.2741985 258.20867389 36.4241985 258.20867389 55.1241985 C172.40867389 55.1241985 86.60867389 55.1241985 -1.79132611 55.1241985 C-1.79132611 56.7741985 -1.79132611 58.4241985 -1.79132611 60.1241985 C84.00867389 60.1241985 169.80867389 60.1241985 258.20867389 60.1241985 C258.20867389 89.4941985 258.20867389 118.8641985 258.20867389 149.1241985 C172.40867389 149.1241985 86.60867389 149.1241985 -1.79132611 149.1241985 C-1.79132611 150.7741985 -1.79132611 152.4241985 -1.79132611 154.1241985 C84.00867389 154.1241985 169.80867389 154.1241985 258.20867389 154.1241985 C258.20867389 181.8441985 258.20867389 209.5641985 258.20867389 238.1241985 C172.07867389 238.1241985 85.94867389 238.1241985 -2.79132611 238.1241985 C-2.81195111 199.0398235 -2.83257611 159.9554485 -2.85382611 119.6866985 C-2.86293011 107.32273609 -2.87203411 94.95877369 -2.881414 82.22014576 C-2.8859306 67.18071705 -2.8859306 67.18071705 -2.88676983 60.15140492 C-2.88770558 55.21727767 -2.89146924 50.28316106 -2.89690167 45.34903675 C-2.90372591 39.06822831 -2.90582376 32.78743549 -2.90439838 26.50662369 C-2.90469673 24.19346389 -2.90670014 21.88030358 -2.91054124 19.56714696 C-2.91546587 16.4587076 -2.91433428 13.35033011 -2.91158062 10.24188954 C-2.91449329 9.32290851 -2.91740595 8.40392748 -2.92040688 7.45709854 C-2.90295686 0.20127149 -2.90295686 0.20127149 0 0 Z " fill="#8A7570" transform="translate(3.791326105594635,484.8758015036583)"/>
<path d="M0 0 C3.7151371 1.54001145 6.73216165 3.75168765 9.95703125 6.1328125 C11.47839062 7.2315441 13.00057066 8.32913999 14.5234375 9.42578125 C15.33828613 10.01536621 16.15313477 10.60495117 16.99267578 11.21240234 C21.58911302 14.51043057 26.24476894 17.72313269 30.89453125 20.9453125 C32.86612061 22.31476562 34.8374749 23.68455724 36.80859375 25.0546875 C37.77571289 25.72693359 38.74283203 26.39917969 39.73925781 27.09179688 C46.54709576 31.82992112 53.33785849 36.59248526 60.13037109 41.35253906 C63.4453782 43.67522279 66.76145408 45.99637786 70.07763672 48.31738281 C71.73954271 49.4806198 73.40132772 50.64402965 75.06298828 51.80761719 C79.33929512 54.80195667 83.61739915 57.79367836 87.8984375 60.78125 C88.77693359 61.39484375 89.65542969 62.0084375 90.56054688 62.640625 C92.21359139 63.79513228 93.86718487 64.94885422 95.52148438 66.1015625 C97.02664975 67.15327299 98.51919135 68.22336731 99.99622631 69.31423187 C102.54274824 71.13976662 102.54274824 71.13976662 105.40786457 72.41214752 C109.33818883 74.53188426 112.79178162 76.5771272 114.20754409 81.04376411 C115.24664939 87.30792828 114.95803407 93.6654411 114.83081055 99.99023438 C114.82743903 102.17388951 114.82891242 104.35755663 114.83482838 106.54120636 C114.83730815 112.3802821 114.7736428 118.21686956 114.69611359 124.05535889 C114.63338431 129.53730964 114.63051528 135.01866069 114.62268066 140.50097656 C114.56500059 156.52441713 114.41142698 172.5473964 114.26953125 188.5703125 C114.04265625 224.3753125 113.81578125 260.1803125 113.58203125 297.0703125 C38.01203125 297.0703125 -37.55796875 297.0703125 -115.41796875 297.0703125 C-115.80984375 261.3684375 -116.20171875 225.6665625 -116.60546875 188.8828125 C-116.77844482 177.62003174 -116.9514209 166.35725098 -117.12963867 154.75317383 C-117.2154541 140.97399902 -117.2154541 140.97399902 -117.23139954 134.51835632 C-117.24907002 130.01877498 -117.32010056 125.52347359 -117.42390442 121.02507019 C-117.55479125 115.27637115 -117.5932165 109.53384263 -117.566342 103.7837919 C-117.57195525 101.68045934 -117.60934838 99.57689942 -117.68305624 97.47485125 C-118.19392002 82.18874678 -118.19392002 82.18874678 -113.53879952 76.95930076 C-108.95682132 73.04083692 -103.93020339 70.05938371 -98.61184084 67.25356328 C-95.88291407 65.78173421 -93.39069734 64.06005684 -90.890625 62.23046875 C-90.15263672 61.71291016 -89.41464844 61.19535156 -88.65429688 60.66210938 C-87.93693359 60.15744141 -87.21957031 59.65277344 -86.48046875 59.1328125 C-84.80470779 57.95700233 -83.12892592 56.78122196 -81.453125 55.60546875 C-80.20619873 54.72979248 -80.20619873 54.72979248 -78.93408203 53.83642578 C-74.76505013 50.91009386 -70.59128355 47.99053151 -66.41796875 45.0703125 C-64.75127914 43.90367861 -63.08461248 42.73701193 -61.41796875 41.5703125 C-51.41796875 34.5703125 -51.41796875 34.5703125 -48.91650391 32.81933594 C-47.25465884 31.65601192 -45.5928747 30.49260086 -43.93115234 29.32910156 C-39.69121783 26.36056534 -35.45014147 23.39368306 -31.20703125 20.4296875 C-29.92131226 19.53068726 -29.92131226 19.53068726 -28.60961914 18.61352539 C-26.9173603 17.43121385 -25.22386461 16.2506704 -23.52905273 15.07202148 C-19.71713713 12.41442637 -15.93669078 9.73196356 -12.2265625 6.93359375 C-11.26919189 6.21961426 -11.26919189 6.21961426 -10.29248047 5.49121094 C-9.12420221 4.61539576 -7.96483178 3.72750701 -6.81689453 2.82519531 C-4.50425884 1.09999966 -2.92083343 0.08493538 0 0 Z " fill="#355098" transform="translate(464.41796875,143.9296875)"/>
<path d="M0 0 C4.95 0 9.9 0 15 0 C15 3.63 15 7.26 15 11 C20.28 11 25.56 11 31 11 C31 15.62 31 20.24 31 25 C25.72 25 20.44 25 15 25 C15 30.94 15 36.88 15 43 C16.8871875 43.2784375 16.8871875 43.2784375 18.8125 43.5625 C29.09197157 45.88992753 36.75483529 52.80113403 43 61 C43.33 61.66 43.66 62.32 44 63 C45.01835937 62.75765625 46.03671875 62.5153125 47.0859375 62.265625 C48.5155562 61.9267929 49.94524992 61.58827728 51.375 61.25 C52.13723877 61.06953125 52.89947754 60.8890625 53.68481445 60.703125 C58.4210391 59.58814987 63.16492135 58.52115389 67.92041016 57.49169922 C73.84246324 56.20729098 79.6894368 54.85885487 85.5 53.125 C93.18688376 50.85003787 100.98602202 49.12978708 108.8034668 47.36523438 C117.49360478 45.38863925 126.11101103 43.19593142 134.70288086 40.82861328 C135.59112549 40.58868652 136.47937012 40.34875977 137.39453125 40.1015625 C138.55239136 39.78179443 138.55239136 39.78179443 139.73364258 39.45556641 C142 39 142 39 147 39 C147 88.5 147 138 147 189 C54.93 189 -37.14 189 -132 189 C-132 161.94 -132 134.88 -132 107 C-111.65164905 101.34768029 -111.65164905 101.34768029 -101.3125 99.0625 C-89.98507441 96.50426301 -78.75858388 93.64364334 -67.53466797 90.66845703 C-56.74933397 87.8240875 -45.92487724 85.25325593 -35 83 C-34.84144531 82.09378906 -34.68289063 81.18757812 -34.51953125 80.25390625 C-32.01957765 67.20166232 -27.18087838 56.80929396 -16.0625 48.9140625 C-10.30159458 45.38550793 -6.91991037 43.98855862 0 43 C0 37.06 0 31.12 0 25 C-5.28 25 -10.56 25 -16 25 C-16 20.38 -16 15.76 -16 11 C-10.72 11 -5.44 11 0 11 C0 7.37 0 3.74 0 0 Z " fill="#839097" transform="translate(456,563)"/>
<path d="M0 0 C76.23 0 152.46 0 231 0 C231 48.51 231 97.02 231 147 C154.77 147 78.54 147 0 147 C0 98.49 0 49.98 0 0 Z " fill="#6B4C2A" transform="translate(347,850)"/>
<path d="M0 0 C87.12 0 174.24 0 264 0 C264 29.37 264 58.74 264 89 C176.88 89 89.76 89 0 89 C0 59.63 0 30.26 0 0 Z " fill="#8A7570" transform="translate(665,545)"/>
<path d="M0 0 C86.79 0 173.58 0 263 0 C263 27.72 263 55.44 263 84 C176.21 84 89.42 84 0 84 C0 56.28 0 28.56 0 0 Z " fill="#8A7570" transform="translate(666,639)"/>
<path d="M0 0 C92.4 0 184.8 0 280 0 C280 66.99 280 133.98 280 203 C279.67 203 279.34 203 279 203 C279 153.5 279 104 279 53 C263.16 56.96 247.32 60.92 231 65 C225.06 66.32 219.12 67.64 213 69 C205.9360429 70.72427299 198.89372735 72.47402624 191.8828125 74.3984375 C191.01906006 74.63312744 190.15530762 74.86781738 189.26538086 75.10961914 C187.57663578 75.57006966 185.88984056 76.03774641 184.20532227 76.51342773 C178.33435797 78.11145266 178.33435797 78.11145266 175 77 C173.52734375 75.1796875 173.52734375 75.1796875 171.9375 72.875 C165.35644112 64.19683221 157.19183372 60.26661337 147 57 C147 51.06 147 45.12 147 39 C152.28 39 157.56 39 163 39 C163 34.38 163 29.76 163 25 C157.72 25 152.44 25 147 25 C147 21.37 147 17.74 147 14 C142.05 14 137.1 14 132 14 C132 17.63 132 21.26 132 25 C126.72 25 121.44 25 116 25 C116 29.62 116 34.24 116 39 C121.28 39 126.56 39 132 39 C132 44.94 132 50.88 132 57 C130.39125 57.515625 128.7825 58.03125 127.125 58.5625 C115.4742545 62.84542187 107.1377305 70.19503999 101.6875 81.375 C99.86652937 85.71319473 99.25080176 90.05183028 98.78515625 94.71484375 C98 97 98 97 95.953125 98.19921875 C92.22071205 99.21131485 88.47128636 100.08220667 84.6875 100.875 C71.7116947 103.61552821 58.89269305 107.01660486 46.05932617 110.34960938 C14.06352625 118.65607896 14.06352625 118.65607896 0 121 C0 81.07 0 41.14 0 0 Z " fill="#A2ACB1" transform="translate(324,549)"/>
<path d="M0 0 C108.24 0 216.48 0 328 0 C328 75.9 328 151.8 328 230 C319.75 230 311.5 230 303 230 C303 161.69 303 93.38 303 23 C211.26 23 119.52 23 25 23 C25 91.31 25 159.62 25 230 C16.75 230 8.5 230 0 230 C0 154.1 0 78.2 0 0 Z " fill="#BFC5D3" transform="translate(300,786)"/>
<path d="M0 0 C3.7151371 1.54001145 6.73216165 3.75168765 9.95703125 6.1328125 C11.47839062 7.2315441 13.00057066 8.32913999 14.5234375 9.42578125 C15.33828613 10.01536621 16.15313477 10.60495117 16.99267578 11.21240234 C21.58911302 14.51043057 26.24476894 17.72313269 30.89453125 20.9453125 C32.86612061 22.31476562 34.8374749 23.68455724 36.80859375 25.0546875 C37.77571289 25.72693359 38.74283203 26.39917969 39.73925781 27.09179688 C46.54709576 31.82992112 53.33785849 36.59248526 60.13037109 41.35253906 C63.4453782 43.67522279 66.76145408 45.99637786 70.07763672 48.31738281 C71.73954271 49.4806198 73.40132772 50.64402965 75.06298828 51.80761719 C79.33929512 54.80195667 83.61739915 57.79367836 87.8984375 60.78125 C88.77693359 61.39484375 89.65542969 62.0084375 90.56054688 62.640625 C92.21359139 63.79513228 93.86718487 64.94885422 95.52148438 66.1015625 C97.02664975 67.15327299 98.51919135 68.22336731 99.99622631 69.31423187 C102.54274824 71.13976662 102.54274824 71.13976662 105.40786457 72.41214752 C109.33818883 74.53188426 112.79178162 76.5771272 114.20754409 81.04376411 C115.24664939 87.30792828 114.95803407 93.6654411 114.83081055 99.99023438 C114.82743903 102.17388951 114.82891242 104.35755663 114.83482838 106.54120636 C114.83730815 112.3802821 114.7736428 118.21686956 114.69611359 124.05535889 C114.63338431 129.53730964 114.63051528 135.01866069 114.62268066 140.50097656 C114.56500059 156.52441713 114.41142698 172.5473964 114.26953125 188.5703125 C114.04265625 224.3753125 113.81578125 260.1803125 113.58203125 297.0703125 C38.01203125 297.0703125 -37.55796875 297.0703125 -115.41796875 297.0703125 C-115.80984375 261.3684375 -116.20171875 225.6665625 -116.60546875 188.8828125 C-116.77844482 177.62003174 -116.9514209 166.35725098 -117.12963867 154.75317383 C-117.2154541 140.97399902 -117.2154541 140.97399902 -117.23139954 134.51835632 C-117.24907002 130.01877498 -117.32010056 125.52347359 -117.42390442 121.02507019 C-117.55479125 115.27637115 -117.5932165 109.53384263 -117.566342 103.7837919 C-117.57195525 101.68045934 -117.60934838 99.57689942 -117.68305624 97.47485125 C-118.19392002 82.18874678 -118.19392002 82.18874678 -113.53879952 76.95930076 C-108.95682132 73.04083692 -103.93020339 70.05938371 -98.61184084 67.25356328 C-95.88291407 65.78173421 -93.39069734 64.06005684 -90.890625 62.23046875 C-90.15263672 61.71291016 -89.41464844 61.19535156 -88.65429688 60.66210938 C-87.93693359 60.15744141 -87.21957031 59.65277344 -86.48046875 59.1328125 C-84.80470779 57.95700233 -83.12892592 56.78122196 -81.453125 55.60546875 C-80.20619873 54.72979248 -80.20619873 54.72979248 -78.93408203 53.83642578 C-74.76505013 50.91009386 -70.59128355 47.99053151 -66.41796875 45.0703125 C-64.75127914 43.90367861 -63.08461248 42.73701193 -61.41796875 41.5703125 C-51.41796875 34.5703125 -51.41796875 34.5703125 -48.91650391 32.81933594 C-47.25465884 31.65601192 -45.5928747 30.49260086 -43.93115234 29.32910156 C-39.69121783 26.36056534 -35.45014147 23.39368306 -31.20703125 20.4296875 C-29.92131226 19.53068726 -29.92131226 19.53068726 -28.60961914 18.61352539 C-26.9173603 17.43121385 -25.22386461 16.2506704 -23.52905273 15.07202148 C-19.71713713 12.41442637 -15.93669078 9.73196356 -12.2265625 6.93359375 C-11.26919189 6.21961426 -11.26919189 6.21961426 -10.29248047 5.49121094 C-9.12420221 4.61539576 -7.96483178 3.72750701 -6.81689453 2.82519531 C-4.50425884 1.09999966 -2.92083343 0.08493538 0 0 Z M-5.71875 24.34375 C-6.3586084 24.83351318 -6.9984668 25.32327637 -7.65771484 25.82788086 C-8.68372803 26.62850952 -8.68372803 26.62850952 -9.73046875 27.4453125 C-11.18650222 28.55989841 -12.64355051 29.67315973 -14.1015625 30.78515625 C-15.19573486 31.62216064 -15.19573486 31.62216064 -16.31201172 32.47607422 C-19.26511737 34.7116156 -22.26997909 36.86817261 -25.29296875 39.0078125 C-26.44150361 39.82277948 -27.58993874 40.63788702 -28.73828125 41.453125 C-29.32899414 41.87239258 -29.91970703 42.29166016 -30.52832031 42.72363281 C-34.08703815 45.259794 -37.62670581 47.82236472 -41.16796875 50.3828125 C-41.92577637 50.9305835 -42.68358398 51.47835449 -43.46435547 52.04272461 C-45.010818 53.16070243 -46.55720429 54.27878572 -48.10351562 55.39697266 C-51.12761693 57.58338514 -54.15283714 59.76824583 -57.17822266 61.95288086 C-58.67022194 63.03032747 -60.16208416 64.10796391 -61.65380859 65.18579102 C-65.47640458 67.94757288 -69.30095433 70.706583 -73.12890625 73.4609375 C-73.91007812 74.02361328 -74.69125 74.58628906 -75.49609375 75.16601562 C-76.95634791 76.2177463 -78.41721628 77.2686251 -79.87890625 78.31835938 C-81.23856658 79.29819035 -82.58656025 80.29444706 -83.92142868 81.30779362 C-86.41796875 83.0703125 -86.41796875 83.0703125 -89.43223953 84.71533108 C-94.43729061 87.73156451 -97.82539524 89.99197372 -99.50737762 95.89120674 C-100.05226208 100.70676088 -99.90386905 105.51419382 -99.78027344 110.34985352 C-99.77659367 112.23326031 -99.77820576 114.11668363 -99.78465652 116.00008297 C-99.78735702 121.02732323 -99.7180132 126.05110994 -99.6333313 131.07753754 C-99.56479278 135.80045486 -99.56176418 140.52254866 -99.55322266 145.24597168 C-99.49035041 159.04203971 -99.32281478 172.83747022 -99.16796875 186.6328125 C-98.92046875 217.4671875 -98.67296875 248.3015625 -98.41796875 280.0703125 C-34.06796875 280.0703125 30.28203125 280.0703125 96.58203125 280.0703125 C96.95328125 249.1534375 97.32453125 218.2365625 97.70703125 186.3828125 C97.87090332 176.63403564 98.03477539 166.88525879 98.20361328 156.84106445 C98.26382658 148.07423771 98.26382658 148.07423771 98.30001831 139.30729675 C98.31674195 135.41181059 98.38395686 131.52077302 98.48239136 127.62651062 C100.34725257 105.45353315 100.34725257 105.45353315 92.77142334 85.78036499 C89.13973909 82.76125996 85.34633509 80.83463049 80.96630478 79.12610435 C76.74003357 77.25464847 73.2326317 74.36661198 69.58203125 71.5703125 C68.08506157 70.48279566 66.58540745 69.39895569 65.08203125 68.3203125 C38.08203125 48.8203125 38.08203125 48.8203125 35.82910156 47.19311523 C34.33897032 46.1169633 32.84873703 45.04095265 31.35839844 43.96508789 C27.4565295 41.14806841 23.55681022 38.32813595 19.66015625 35.50390625 C18.85191406 34.91867188 18.04367187 34.3334375 17.2109375 33.73046875 C15.67121353 32.61549622 14.1321095 31.49966687 12.59375 30.3828125 C10.59578713 28.93677307 8.59105404 27.50093283 6.58203125 26.0703125 C5.72061523 25.44793701 5.72061523 25.44793701 4.84179688 24.81298828 C0.63840667 21.86466939 -1.58156856 21.13137803 -5.71875 24.34375 Z " fill="#806F71" transform="translate(464.41796875,143.9296875)"/>
<path d="M0 0 C0 18.48 0 36.96 0 56 C-86.79 56 -173.58 56 -263 56 C-263 37.85 -263 19.7 -263 1 C-229.78418618 0.87256754 -196.56837227 0.74516235 -163.35255811 0.61781773 C-159.43458301 0.60279675 -155.51660791 0.58777543 -151.59863281 0.57275391 C-150.42859406 0.56826798 -150.42859406 0.56826798 -149.23491816 0.56369144 C-136.59097673 0.51521384 -123.9470354 0.46670918 -111.3030941 0.41819459 C-98.33732227 0.36844574 -85.37155033 0.31872582 -72.40577829 0.26903296 C-64.39982639 0.23834828 -56.39387457 0.20764081 -48.38792287 0.17690456 C-42.25761274 0.15337164 -36.12730245 0.12987887 -29.99699211 0.10640144 C-27.47579252 0.09673956 -24.95459297 0.08706442 -22.43339348 0.07737541 C-19.00528858 0.06420308 -15.5771835 0.05107734 -12.14907837 0.03796387 C-11.13936655 0.03407292 -10.12965472 0.03018197 -9.08934557 0.02617311 C-8.17619723 0.02268972 -7.26304889 0.01920632 -6.32222939 0.01561737 C-5.13408447 0.01106073 -5.13408447 0.01106073 -3.92193663 0.00641203 C-2.61462995 0.00205055 -1.30731396 0 0 0 Z " fill="#89746F" transform="translate(929,484)"/>
<path d="M0 0 C31.35 0 62.7 0 95 0 C95 46.53 95 93.06 95 141 C63.65 141 32.3 141 0 141 C0 94.47 0 47.94 0 0 Z " fill="#1D080A" transform="translate(415,856)"/>
<path d="M0 0 C4.95 0 9.9 0 15 0 C15 3.63 15 7.26 15 11 C20.28 11 25.56 11 31 11 C31 15.62 31 20.24 31 25 C25.72 25 20.44 25 15 25 C15 30.94 15 36.88 15 43 C16.8871875 43.2784375 16.8871875 43.2784375 18.8125 43.5625 C28.87130239 45.83996469 37.17434459 52.66442502 43 61 C49.26109571 72.2262539 50.69074621 83.96904066 47.80859375 96.53125 C44.39665127 106.94838839 36.51207934 115.94914491 26.8125 120.9375 C25.22854807 121.67037328 23.62275573 122.35760544 22 123 C21.07960938 123.36480469 20.15921875 123.72960937 19.2109375 124.10546875 C9.14151767 126.91069642 -2.79859703 125.92877804 -12 121 C-22.50046097 114.52813507 -30.16191017 105.8943371 -33.45703125 93.93359375 C-35.75420693 81.52223448 -33.81317551 70.90171108 -27.25 60.25 C-22.16956848 53.1195698 -15.17992494 47.26118919 -7 44 C-3.535 43.505 -3.535 43.505 0 43 C0 37.06 0 31.12 0 25 C-5.28 25 -10.56 25 -16 25 C-16 20.38 -16 15.76 -16 11 C-10.72 11 -5.44 11 0 11 C0 7.37 0 3.74 0 0 Z " fill="#7A7FA1" transform="translate(456,563)"/>
<path d="M0 0 C3.96 0 7.92 0 12 0 C12 13.53 12 27.06 12 41 C32.13 41 52.26 41 73 41 C73 44.96 73 48.92 73 53 C52.87 53 32.74 53 12 53 C12 101.51 12 150.02 12 200 C8.04 200 4.08 200 0 200 C0 151.49 0 102.98 0 53 C-20.46 53 -40.92 53 -62 53 C-62 49.04 -62 45.08 -62 41 C-41.54 41 -21.08 41 0 41 C0 27.47 0 13.94 0 0 Z " fill="#D0DCEC" transform="translate(458,203)"/>
<path d="M0 0 C7.59 0 15.18 0 23 0 C21.68 0.99 20.36 1.98 19 3 C18.45245117 5.11443807 18.45245117 5.11443807 18.609375 7.44921875 C18.62226563 8.29677734 18.63515625 9.14433594 18.6484375 10.01757812 C18.68195313 10.89865234 18.71546875 11.77972656 18.75 12.6875 C18.77707031 14.02651367 18.77707031 14.02651367 18.8046875 15.39257812 C18.85182241 17.59613504 18.91759343 19.79752601 19 22 C19.95261719 21.18015625 20.90523438 20.3603125 21.88671875 19.515625 C23.15360769 18.42703894 24.42053691 17.33849976 25.6875 16.25 C26.62625977 15.44175781 26.62625977 15.44175781 27.58398438 14.6171875 C28.19951172 14.08867187 28.81503906 13.56015625 29.44921875 13.015625 C30.05169434 12.49548828 30.65416992 11.97535156 31.27490234 11.43945312 C32.78339701 10.18073751 34.36559155 9.01143439 35.95703125 7.859375 C36.63121094 7.24578125 37.30539062 6.6321875 38 6 C38 4.68 38 3.36 38 2 C36.68 1.34 35.36 0.68 34 0 C39.94 0 45.88 0 52 0 C50.68 0.99 49.36 1.98 48 3 C46.43328508 4.24471306 44.87107462 5.495109 43.3125 6.75 C38.5785847 10.54838672 33.80205127 14.28826955 29 18 C31.9160589 22.49730211 35.04614925 26.7384065 38.375 30.9375 C38.85960693 31.55069092 39.34421387 32.16388184 39.84350586 32.7956543 C45.14286814 40.33459387 45.14286814 40.33459387 52 46 C56.65275976 46.3052622 56.65275976 46.3052622 61 45 C61 31.14 61 17.28 61 3 C58.525 2.01 58.525 2.01 56 1 C56 0.67 56 0.34 56 0 C60.49994472 -0.05845252 64.99979063 -0.09374855 69.5 -0.125 C70.7684375 -0.14175781 72.036875 -0.15851563 73.34375 -0.17578125 C89.4177145 -0.25949982 89.4177145 -0.25949982 95 4.625 C97.637837 9.07634993 97.80966191 10.89912995 97 16 C94.46546343 19.21954645 92.88702695 20.70432435 89 22 C89.55429687 22.32613281 90.10859375 22.65226562 90.6796875 22.98828125 C91.76636719 23.64376953 91.76636719 23.64376953 92.875 24.3125 C93.59429688 24.74175781 94.31359375 25.17101562 95.0546875 25.61328125 C97.51987084 27.37059066 98.8253598 29.03488308 99.37109375 32.05078125 C99.49912052 36.41122249 99.27360231 38.55228713 96.9375 42.375 C89.81338437 48.74123099 83.02082965 48.41028837 73.84765625 48.29296875 C72.59238632 48.28872391 71.33711639 48.28447906 70.04380798 48.28010559 C66.72770663 48.26620628 63.41223948 48.23931502 60.09631348 48.20599365 C56.7042383 48.1751492 53.31209726 48.16156975 49.91992188 48.14648438 C43.27977447 48.11347638 36.6399238 48.06332215 30 48 C30.99 47.34 31.98 46.68 33 46 C32.46863344 41.67467622 29.74287743 38.73394905 27.125 35.4375 C26.67769531 34.86064453 26.23039062 34.28378906 25.76953125 33.68945312 C23.62998942 30.95349034 21.46056073 28.46056073 19 26 C19 32.27 19 38.54 19 45 C20.65 45.66 22.3 46.32 24 47 C24 47.33 24 47.66 24 48 C16.08 48 8.16 48 0 48 C3 46 3 46 5 45 C5 31.14 5 17.28 5 3 C2.525 2.01 2.525 2.01 0 1 C0 0.67 0 0.34 0 0 Z " fill="#4F5683" transform="translate(422,455)"/>
<path d="M0 0 C7.90583953 3.66368173 12.9995092 9.57394056 16.23828125 17.609375 C18.12200385 24.38656694 17.85025617 30.93223344 15 37.375 C11.02376344 44.35026244 4.82858899 50.34404225 -2.96875 52.7265625 C-10.24634734 54.11147841 -17.44635432 53.58343979 -24.0625 50.125 C-29.88070921 46.04286934 -35.41768445 41.25253405 -37.0625 34.125 C-38.07803383 25.07506575 -38.44431235 16.83708258 -32.9140625 9.14453125 C-29.96686094 5.92996752 -26.80025725 3.36462782 -23.0625 1.125 C-22.47984375 0.75246094 -21.8971875 0.37992188 -21.296875 -0.00390625 C-15.07728329 -2.42867715 -6.34943242 -1.81412355 0 0 Z " fill="#839096" transform="translate(474.0625,620.875)"/>
<path d="M0 0 C5.20348939 9.47778425 5.18992168 21.1519448 2.80859375 31.53125 C-0.60334873 41.94838839 -8.48792066 50.94914491 -18.1875 55.9375 C-19.77145193 56.67037328 -21.37724427 57.35760544 -23 58 C-23.92039062 58.36480469 -24.84078125 58.72960937 -25.7890625 59.10546875 C-35.85848233 61.91069642 -47.79859703 60.92877804 -57 56 C-67.84409557 49.31633896 -75.00793614 40.74124433 -78.47265625 28.51171875 C-79.22824316 24.91288626 -79.20360976 21.66497563 -79 18 C-74.44508386 15.79600832 -69.97093824 15.41153737 -65 15 C-64.85304688 16.16015625 -64.85304688 16.16015625 -64.703125 17.34375 C-63.2735856 27.30123134 -61.18194533 34.06052763 -53.19921875 40.5234375 C-46.73035516 44.86665319 -39.65832769 45.88126623 -32 45 C-24.49317635 43.47108729 -18.78842288 38.9024417 -14.38671875 32.7421875 C-10.72799566 26.3316924 -9.89563814 20.28096982 -11 13 C-11.86609075 10.43889902 -12.86484461 8.13123209 -14.125 5.7421875 C-15 4 -15 4 -15 2 C-13.44240657 1.46467177 -11.87861955 0.94734622 -10.3125 0.4375 C-9.44238281 0.14746094 -8.57226562 -0.14257812 -7.67578125 -0.44140625 C-4.68479183 -1.06580258 -2.88224954 -0.9986525 0 0 Z " fill="#4D5582" transform="translate(501,628)"/>
<path d="M0 0 C0.33 0 0.66 0 1 0 C1 27.72 1 55.44 1 84 C87.79 84 174.58 84 264 84 C264 85.98 264 87.96 264 90 C177.21 90 90.42 90 1 90 C1 97.59 1 105.18 1 113 C0.67 113 0.34 113 0 113 C0 75.71 0 38.42 0 0 Z " fill="#B1B5BF" transform="translate(665,639)"/>
<path d="M0 0 C0.33 0 0.66 0 1 0 C1 37.29 1 74.58 1 113 C0.67 113 0.34 113 0 113 C0 105.41 0 97.82 0 90 C-86.13 90 -172.26 90 -261 90 C-261 88.02 -261 86.04 -261 84 C-174.87 84 -88.74 84 0 84 C0 56.28 0 28.56 0 0 Z " fill="#B2B6C1" transform="translate(262,639)"/>
<path d="M0 0 C87.12 0 174.24 0 264 0 C264 1.98 264 3.96 264 6 C176.88 6 89.76 6 0 6 C0 4.02 0 2.04 0 0 Z " fill="#B1B6C1" transform="translate(665,813)"/>
<path d="M0 0 C86.13 0 172.26 0 261 0 C261 1.98 261 3.96 261 6 C174.87 6 88.74 6 0 6 C0 4.02 0 2.04 0 0 Z " fill="#B1B6C1" transform="translate(1,813)"/>
<path d="M0 0 C86.79 0 173.58 0 263 0 C263 1.65 263 3.3 263 5 C176.21 5 89.42 5 0 5 C0 3.35 0 1.7 0 0 Z " fill="#B7C0CD" transform="translate(666,907)"/>
<path d="M0 0 C86.79 0 173.58 0 263 0 C263 1.65 263 3.3 263 5 C176.21 5 89.42 5 0 5 C0 3.35 0 1.7 0 0 Z " fill="#B7C0CD" transform="translate(666,634)"/>
<path d="M0 0 C86.79 0 173.58 0 263 0 C263 1.65 263 3.3 263 5 C176.21 5 89.42 5 0 5 C0 3.35 0 1.7 0 0 Z " fill="#B7C0CD" transform="translate(666,540)"/>
<path d="M0 0 C85.8 0 171.6 0 260 0 C260 1.65 260 3.3 260 5 C174.2 5 88.4 5 0 5 C0 3.35 0 1.7 0 0 Z " fill="#B7C0CD" transform="translate(2,907)"/>
<path d="M0 0 C85.8 0 171.6 0 260 0 C260 1.65 260 3.3 260 5 C174.2 5 88.4 5 0 5 C0 3.35 0 1.7 0 0 Z " fill="#B7C0CD" transform="translate(2,634)"/>
<path d="M0 0 C85.8 0 171.6 0 260 0 C260 1.65 260 3.3 260 5 C174.2 5 88.4 5 0 5 C0 3.35 0 1.7 0 0 Z " fill="#B7C0CD" transform="translate(2,540)"/>
<path d="M0 0 C7.92 0 15.84 0 24 0 C22.02 0.99 22.02 0.99 20 2 C18.41596476 3.58403524 18.78025065 5.2771638 18.68359375 7.47265625 C18.64169922 8.37177734 18.59980469 9.27089844 18.55664062 10.19726562 C18.51732422 11.14279297 18.47800781 12.08832031 18.4375 13.0625 C18.39431641 14.01189453 18.35113281 14.96128906 18.30664062 15.93945312 C18.20020868 18.29278176 18.09956846 20.64637099 18 23 C23.61 23 29.22 23 35 23 C34.505 12.605 34.505 12.605 34 2 C32.02 1.67 30.04 1.34 28 1 C28 0.67 28 0.34 28 0 C36.25 0 44.5 0 53 0 C53 0.33 53 0.66 53 1 C51.02 1.66 49.04 2.32 47 3 C47 16.86 47 30.72 47 45 C48.98 45.66 50.96 46.32 53 47 C53 47.33 53 47.66 53 48 C44.75 48 36.5 48 28 48 C32 46 32 46 34 46 C34.33 39.07 34.66 32.14 35 25 C29.39 25 23.78 25 18 25 C18.33 31.6 18.66 38.2 19 45 C20.65 45.66 22.3 46.32 24 47 C24 47.33 24 47.66 24 48 C16.08 48 8.16 48 0 48 C1.32 47.34 2.64 46.68 4 46 C5.4612027 44.76766415 5.4612027 44.76766415 5.11352539 41.03100586 C5.1133662 39.25894393 5.10766785 37.4868774 5.09765625 35.71484375 C5.0962413 34.78402481 5.09482635 33.85320587 5.09336853 32.8941803 C5.08775172 29.90858809 5.0751964 26.92306971 5.0625 23.9375 C5.05748716 21.91862087 5.05292388 19.89974057 5.04882812 17.88085938 C5.03777683 12.92054428 5.02050095 7.96028468 5 3 C2.525 2.01 2.525 2.01 0 1 C0 0.67 0 0.34 0 0 Z " fill="#4F5683" transform="translate(366,455)"/>
<path d="M0 0 C7.59 0 15.18 0 23 0 C21.68 0.99 20.36 1.98 19 3 C18.45245117 5.11443807 18.45245117 5.11443807 18.609375 7.44921875 C18.62226563 8.29677734 18.63515625 9.14433594 18.6484375 10.01757812 C18.68195313 10.89865234 18.71546875 11.77972656 18.75 12.6875 C18.77707031 14.02651367 18.77707031 14.02651367 18.8046875 15.39257812 C18.85182241 17.59613504 18.91759343 19.79752601 19 22 C19.95261719 21.18015625 20.90523438 20.3603125 21.88671875 19.515625 C23.15360769 18.42703894 24.42053691 17.33849976 25.6875 16.25 C26.62625977 15.44175781 26.62625977 15.44175781 27.58398438 14.6171875 C28.19951172 14.08867187 28.81503906 13.56015625 29.44921875 13.015625 C30.05169434 12.49548828 30.65416992 11.97535156 31.27490234 11.43945312 C32.78339701 10.18073751 34.36559155 9.01143439 35.95703125 7.859375 C36.63121094 7.24578125 37.30539062 6.6321875 38 6 C38 4.68 38 3.36 38 2 C36.68 1.34 35.36 0.68 34 0 C39.94 0 45.88 0 52 0 C50.68 0.99 49.36 1.98 48 3 C46.43328508 4.24471306 44.87107462 5.495109 43.3125 6.75 C38.5785847 10.54838672 33.80205127 14.28826955 29 18 C33.18620424 24.45618823 37.93754963 30.39977677 42.74462891 36.39990234 C43.76692725 37.70292516 44.74075153 39.04386365 45.69921875 40.39453125 C48.53877602 44.25925819 50.62449243 45.44753409 55.375 46.4375 C56.91300238 46.65300181 58.45420417 46.85030831 60 47 C60 47.33 60 47.66 60 48 C50.1 48 40.2 48 30 48 C30.99 47.34 31.98 46.68 33 46 C32.46863344 41.67467622 29.74287743 38.73394905 27.125 35.4375 C26.67769531 34.86064453 26.23039062 34.28378906 25.76953125 33.68945312 C23.62998942 30.95349034 21.46056073 28.46056073 19 26 C19 32.27 19 38.54 19 45 C20.65 45.66 22.3 46.32 24 47 C24 47.33 24 47.66 24 48 C16.08 48 8.16 48 0 48 C3 46 3 46 5 45 C5 31.14 5 17.28 5 3 C2.525 2.01 2.525 2.01 0 1 C0 0.67 0 0.34 0 0 Z " fill="#505784" transform="translate(422,455)"/>
<path d="M0 0 C4.145697 -0.0879568 8.29115012 -0.14071153 12.4375 -0.1875 C13.60216797 -0.21263672 14.76683594 -0.23777344 15.96679688 -0.26367188 C23.97116053 -0.33131438 30.64482983 0.34440843 37.5625 4.5625 C39.90626654 8.53671283 39.72660907 12.51682201 39 17 C36.87151869 20.64882511 34.87344331 22.44796963 31 24 C26.67214047 24.55404965 22.35932562 24.73844046 18 25 C18 31.93 18 38.86 18 46 C19.98 46.33 21.96 46.66 24 47 C24 47.33 24 47.66 24 48 C16.08 48 8.16 48 0 48 C3 46 3 46 6 46 C6 31.48 6 16.96 6 2 C3.03 1.505 3.03 1.505 0 1 C0 0.67 0 0.34 0 0 Z " fill="#505784" transform="translate(526,455)"/>
<path d="M0 0 C2.62776447 1.00105313 5.19447669 2.11499627 7.7734375 3.234375 C19.62597244 8.1354232 33.68559627 7.0648657 45.625 3 C46.96717541 2.4373094 48.30220955 1.85686158 49.625 1.25 C52.87020935 -0.10217056 53.48888572 -0.25444571 56.625 1 C58.58203125 2.7421875 58.58203125 2.7421875 60.4375 4.875 C61.06269531 5.57367187 61.68789063 6.27234375 62.33203125 6.9921875 C62.97205078 7.98605469 62.97205078 7.98605469 63.625 9 C62.625 12 62.625 12 59.8515625 13.5 C58.66304688 13.995 57.47453125 14.49 56.25 15 C55.08726562 15.495 53.92453125 15.99 52.7265625 16.5 C44.00118477 19.82729786 35.78652445 21.56157513 26.4375 21.5 C24.94246948 21.49359497 24.94246948 21.49359497 23.41723633 21.48706055 C10.66069565 21.19660267 -0.2872309 17.26352341 -11.375 11 C-4.46802326 0 -4.46802326 0 0 0 Z " fill="#505783" transform="translate(437.375,690)"/>
<path d="M0 0 C4.1573006 2.02886227 8.02287131 4.28440991 10.859375 8.0234375 C10.859375 8.6834375 10.859375 9.3434375 10.859375 10.0234375 C9.29703125 10.38695312 9.29703125 10.38695312 7.703125 10.7578125 C0.28586984 12.48955227 -7.12516508 14.24280485 -14.515625 16.0859375 C-15.5041748 16.3324707 -15.5041748 16.3324707 -16.51269531 16.58398438 C-21.33821819 17.79822622 -26.12984673 19.11345875 -30.90625 20.5078125 C-33.140625 21.0234375 -33.140625 21.0234375 -37.140625 21.0234375 C-36.82788915 14.92508846 -34.04385034 10.53956599 -30.140625 6.0234375 C-21.2123627 -1.16710932 -11.13665714 -3.4628909 0 0 Z " fill="#A2ACB0" transform="translate(474.140625,620.9765625)"/>
<path d="M0 0 C0.66 0 1.32 0 2 0 C3.26401706 1.66755302 4.46109266 3.38609462 5.625 5.125 C9.18484884 10.177899 12.78806822 13.7148196 18 17 C17.61328125 17.44730469 17.2265625 17.89460937 16.828125 18.35546875 C13.81609925 21.8521026 10.85678969 25.37407463 8 29 C11.19990508 31.74277578 14.00499382 33.6302836 18 35 C17.34 36.32 16.68 37.64 16 39 C3.29436052 37.17513257 -7.71981852 25.37370245 -15.125 15.5625 C-19 10.31314879 -19 10.31314879 -19 8 C-16.54093963 8.47565766 -14.08279007 8.95536052 -11.625 9.4375 C-10.92632812 9.57220703 -10.22765625 9.70691406 -9.5078125 9.84570312 C-4.2265625 10.88671875 -4.2265625 10.88671875 -2 12 C-1.855625 10.7625 -1.71125 9.525 -1.5625 8.25 C-1.21311498 5.43495501 -0.79620634 2.7298503 0 0 Z " fill="#4E5682" transform="translate(416,671)"/>
<path d="M0 0 C0.66 0.33 1.32 0.66 2 1 C2.6328125 3.50390625 2.6328125 3.50390625 3.125 6.5625 C3.29257812 7.57441406 3.46015625 8.58632813 3.6328125 9.62890625 C3.75398437 10.41136719 3.87515625 11.19382812 4 12 C4.97582031 11.69964844 5.95164062 11.39929688 6.95703125 11.08984375 C8.24205183 10.70527555 9.52721569 10.32118586 10.8125 9.9375 C11.45509766 9.73833984 12.09769531 9.53917969 12.75976562 9.33398438 C17.66015625 7.88671875 17.66015625 7.88671875 21 9 C12.05636185 22.1406527 1.68226543 34.23112396 -14 39 C-14.66 37.68 -15.32 36.36 -16 35 C-12.7 33.35 -9.4 31.7 -6 30 C-6.9075 28.783125 -7.815 27.56625 -8.75 26.3125 C-9.26046875 25.62800781 -9.7709375 24.94351563 -10.296875 24.23828125 C-12.15800472 21.79234701 -14.07189611 19.39336374 -16 17 C-15.18015625 16.27554688 -14.3603125 15.55109375 -13.515625 14.8046875 C-12.42677085 13.82847343 -11.33824668 12.85189121 -10.25 11.875 C-9.71117187 11.400625 -9.17234375 10.92625 -8.6171875 10.4375 C-5.07711474 7.24280019 -2.4885227 4.07102985 0 0 Z " fill="#4E5582" transform="translate(510,671)"/>
<path d="M0 0 C6.44287383 -0.29077103 6.44287383 -0.29077103 8.9609375 1.0234375 C13.91883274 5.76219925 13.91883274 5.76219925 14.25 10.8125 C14.20129814 14.64603185 13.43073001 16.93908073 11 20 C7.54754176 22.30163882 6.05261287 22.34490322 2 22 C0 20 0 20 -0.22705078 17.93701172 C-0.21657715 17.10959473 -0.20610352 16.28217773 -0.1953125 15.4296875 C-0.18886719 14.53378906 -0.18242187 13.63789063 -0.17578125 12.71484375 C-0.15902344 11.77769531 -0.14226562 10.84054687 -0.125 9.875 C-0.11597656 8.93011719 -0.10695313 7.98523438 -0.09765625 7.01171875 C-0.07404522 4.67422708 -0.04111516 2.33723877 0 0 Z " fill="#CACED6" transform="translate(495,479)"/>
<path d="M0 0 C7 0 7 0 9.875 2.375 C12.94557135 6.16805873 13.38239394 8.12447723 13 13 C11.72311154 15.80915461 10.68900183 17.50106764 8.1875 19.3125 C6 20 6 20 0 20 C0 13.4 0 6.8 0 0 Z " fill="#C7CBD3" transform="translate(495,457)"/>
<path d="M0 0 C7 1 7 1 8.9140625 2.75390625 C11.2623526 7.61098111 10.6663874 13.07923632 8.9375 18.0625 C7 20 7 20 0 21 C0 14.07 0 7.14 0 0 Z " fill="#C9CCD5" transform="translate(544,457)"/>
<path d="M0 0 C6.93359375 -0.09765625 6.93359375 -0.09765625 9 0 C10.77201559 1.77201559 10 4.60574059 10 7 C10.20625 7.9075 10.4125 8.815 10.625 9.75 C10.74875 10.4925 10.8725 11.235 11 12 C9 14 9 14 6.8359375 14.1953125 C4.55729167 14.13020833 2.27864583 14.06510417 0 14 C0 9.38 0 4.76 0 0 Z " fill="#5A618A" transform="translate(494,510)"/>
<path d="M0 0 C1.32 0 2.64 0 4 0 C4.66 2.31 5.32 4.62 6 7 C6.99 4.69 7.98 2.38 9 0 C10.32 0 11.64 0 13 0 C13 4.62 13 9.24 13 14 C12.01 14 11.02 14 10 14 C9.67 12.35 9.34 10.7 9 9 C8.67 10.65 8.34 12.3 8 14 C7.01 14 6.02 14 5 14 C4.67 12.68 4.34 11.36 4 10 C3.67 11.32 3.34 12.64 3 14 C2.01 14 1.02 14 0 14 C0 9.38 0 4.76 0 0 Z " fill="#595F8A" transform="translate(417,510)"/>
<path d="M0 0 C-1.66666667 1.66666667 -3.33333333 3.33333333 -5 5 C-4.34 7.31 -3.68 9.62 -3 12 C-2.01 12 -1.02 12 0 12 C0 12.66 0 13.32 0 14 C-1.60064843 14.53154742 -3.20568874 15.04988353 -4.8125 15.5625 C-5.70582031 15.85253906 -6.59914063 16.14257812 -7.51953125 16.44140625 C-10 17 -10 17 -13 16 C-12.649375 15.443125 -12.29875 14.88625 -11.9375 14.3125 C-10.76823527 11.42831368 -11.05065798 9.92713788 -12 7 C-12.66 6.67 -13.32 6.34 -14 6 C-13.67 5.01 -13.34 4.02 -13 3 C-10.56640625 1.796875 -10.56640625 1.796875 -7.5625 0.75 C-6.57378906 0.39421875 -5.58507812 0.0384375 -4.56640625 -0.328125 C-2 -1 -2 -1 0 0 Z " fill="#4F5682" transform="translate(488,693)"/>
<path d="M0 0 C7.75 -0.125 7.75 -0.125 10 1 C10 4.33333333 10 7.66666667 10 11 C10.33 11.99 10.66 12.98 11 14 C9.125 13.6875 9.125 13.6875 7 13 C6.34 12.01 5.68 11.02 5 10 C4.01 9.67 3.02 9.34 2 9 C2 10.65 2 12.3 2 14 C1.34 14 0.68 14 0 14 C0 9.38 0 4.76 0 0 Z " fill="#626990" transform="translate(390,510)"/>
<path d="M0 0 C1.32 0 2.64 0 4 0 C4.67260351 1.76858691 5.33788395 3.53996016 6 5.3125 C6.37125 6.29863281 6.7425 7.28476562 7.125 8.30078125 C8 11 8 11 8 14 C7.01 13.67 6.02 13.34 5 13 C5 12.34 5 11.68 5 11 C2.02934491 11.34227572 2.02934491 11.34227572 -1 12 C-1.33 12.66 -1.66 13.32 -2 14 C-2.99 14 -3.98 14 -5 14 C-4.54636829 12.41531323 -4.08688548 10.83230076 -3.625 9.25 C-3.36976563 8.36828125 -3.11453125 7.4865625 -2.8515625 6.578125 C-2.0790066 4.23919428 -1.16374324 2.16557438 0 0 Z " fill="#535A86" transform="translate(450,510)"/>
<path d="M0 0 C7.75 -0.125 7.75 -0.125 10 1 C10.125 3.875 10.125 3.875 10 7 C8 9 8 9 5.375 9.125 C4.59125 9.08375 3.8075 9.0425 3 9 C3 10.65 3 12.3 3 14 C2.01 14 1.02 14 0 14 C0 9.38 0 4.76 0 0 Z " fill="#646A91" transform="translate(364,510)"/>
<path d="M0 0 C1.859375 0.1953125 1.859375 0.1953125 4 1 C5.265625 3.1796875 5.265625 3.1796875 6.25 5.875 C6.58515625 6.75929688 6.9203125 7.64359375 7.265625 8.5546875 C8 11 8 11 8 14 C7.01 14 6.02 14 5 14 C5 13.01 5 12.02 5 11 C2.69 11 0.38 11 -2 11 C-2 11.99 -2 12.98 -2 14 C-2.99 14 -3.98 14 -5 14 C-4.54857225 12.22739369 -4.08859477 10.4569632 -3.625 8.6875 C-3.36976563 7.70136719 -3.11453125 6.71523438 -2.8515625 5.69921875 C-2 3 -2 3 0 0 Z " fill="#545B87" transform="translate(538,510)"/>
<path d="M0 0 C3.3 0 6.6 0 10 0 C10 0.99 10 1.98 10 3 C7.36 3 4.72 3 2 3 C2 3.66 2 4.32 2 5 C4.31 5 6.62 5 9 5 C9 5.99 9 6.98 9 8 C6.69 8 4.38 8 2 8 C2 8.99 2 9.98 2 11 C4.64 11 7.28 11 10 11 C10 11.99 10 12.98 10 14 C6.7 14 3.4 14 0 14 C0 9.38 0 4.76 0 0 Z " fill="#4E5582" transform="translate(508,510)"/>
<path d="M0 0 C3.3 0 6.6 0 10 0 C10 0.99 10 1.98 10 3 C7.36 3 4.72 3 2 3 C2 3.66 2 4.32 2 5 C4.31 5 6.62 5 9 5 C9 5.99 9 6.98 9 8 C6.69 8 4.38 8 2 8 C2 8.99 2 9.98 2 11 C4.64 11 7.28 11 10 11 C10 11.99 10 12.98 10 14 C6.7 14 3.4 14 0 14 C0 9.38 0 4.76 0 0 Z " fill="#4E5582" transform="translate(377,510)"/>
<path d="M0 0 C0.99 0 1.98 0 3 0 C3.33 3.3 3.66 6.6 4 10 C4.99 10 5.98 10 7 10 C7.33 6.7 7.66 3.4 8 0 C8.99 0 9.98 0 11 0 C11.08082094 1.95766281 11.13910778 3.91626728 11.1875 5.875 C11.22230469 6.96554687 11.25710938 8.05609375 11.29296875 9.1796875 C11.19628906 10.11039063 11.09960938 11.04109375 11 12 C8 14 8 14 4.375 13.6875 C1 13 1 13 0 12 C-0.07244053 9.98035801 -0.08377188 7.95832876 -0.0625 5.9375 C-0.05347656 4.83277344 -0.04445313 3.72804688 -0.03515625 2.58984375 C-0.02355469 1.73519531 -0.01195312 0.88054687 0 0 Z " fill="#5A618A" transform="translate(403,510)"/>
<path d="M0 0 C3.625 0.375 3.625 0.375 7 1 C7.33 2.32 7.66 3.64 8 5 C7.01 5 6.02 5 5 5 C5 4.34 5 3.68 5 3 C3.68 3 2.36 3 1 3 C1 3.99 1 4.98 1 6 C3.97 6.495 3.97 6.495 7 7 C7.625 9.375 7.625 9.375 8 12 C7.34 12.66 6.68 13.32 6 14 C2.375 13.625 2.375 13.625 -1 13 C-1.33 11.68 -1.66 10.36 -2 9 C0.31 9.33 2.62 9.66 5 10 C3.5459375 9.4121875 3.5459375 9.4121875 2.0625 8.8125 C-1 7 -1 7 -2 4.4375 C-2 2 -2 2 0 0 Z " fill="#545B86" transform="translate(462,510)"/>
<path d="M0 0 C2.5625 0.3125 2.5625 0.3125 4.375 1.6875 C5.5625 3.3125 5.5625 3.3125 5.5625 5.3125 C3.2525 4.9825 0.9425 4.6525 -1.4375 4.3125 C-0.839375 4.60125 -0.24125 4.89 0.375 5.1875 C2.5625 6.3125 2.5625 6.3125 5.5625 8.3125 C5.2325 9.9625 4.9025 11.6125 4.5625 13.3125 C1.25 14 1.25 14 -2.4375 14.3125 C-4.375 13 -4.375 13 -5.4375 11.3125 C-5.4375 10.6525 -5.4375 9.9925 -5.4375 9.3125 C-2.77083333 9.97916667 -0.10416667 10.64583333 2.5625 11.3125 C2.5625 10.3225 2.5625 9.3325 2.5625 8.3125 C-0.4075 7.8175 -0.4075 7.8175 -3.4375 7.3125 C-4.0625 4.9375 -4.0625 4.9375 -4.4375 2.3125 C-2.4375 0.3125 -2.4375 0.3125 0 0 Z " fill="#535A86" transform="translate(552.4375,509.6875)"/>
<path d="M0 0 C2.64 0 5.28 0 8 0 C10.125 5.625 10.125 5.625 9 9 C6.29120665 10.35439668 3.99066732 10.06501451 1 10 C0.67 6.7 0.34 3.4 0 0 Z " fill="#6E798E" transform="translate(468,699)"/>
<path d="M0 0 C0.66 0 1.32 0 2 0 C2.33 1.65 2.66 3.3 3 5 C4.32 3.35 5.64 1.7 7 0 C8.32 0.33 9.64 0.66 11 1 C10.484375 1.391875 9.96875 1.78375 9.4375 2.1875 C7.7229216 3.92673802 7.7229216 3.92673802 8.1875 6.375 C8.99560224 8.98579184 9.92360806 11.48841881 11 14 C9.125 13.75 9.125 13.75 7 13 C5.75 10.9375 5.75 10.9375 5 9 C4.34 9 3.68 9 3 9 C2.67 10.65 2.34 12.3 2 14 C1.34 14 0.68 14 0 14 C0 9.38 0 4.76 0 0 Z " fill="#525985" transform="translate(521,510)"/>
<path d="M0 0 C0.99 0 1.98 0 3 0 C4.32 2.64 5.64 5.28 7 8 C7.33 5.36 7.66 2.72 8 0 C8.66 0 9.32 0 10 0 C10 4.62 10 9.24 10 14 C9.01 14 8.02 14 7 14 C5.68 11.36 4.36 8.72 3 6 C2.67 8.64 2.34 11.28 2 14 C1.34 14 0.68 14 0 14 C0 9.38 0 4.76 0 0 Z " fill="#515784" transform="translate(433,510)"/>
<path d="M0 0 C2.375 -0.125 2.375 -0.125 5 0 C7 2 7 2 7.375 4.375 C6.89262388 7.75163282 5.55541504 8.84386856 3 11 C4.32 11.33 5.64 11.66 7 12 C7 12.66 7 13.32 7 14 C4.03 14 1.06 14 -2 14 C-0.67461876 10.02385628 1.01230914 7.88810116 4 5 C4 4.34 4 3.68 4 3 C2.35 3.33 0.7 3.66 -1 4 C-0.67 2.68 -0.34 1.36 0 0 Z " fill="#5A618B" transform="translate(479,510)"/>
<path d="M0 0 C0.66 0.33 1.32 0.66 2 1 C2 2.32 2 3.64 2 5 C5.0745356 4.2236068 5.0745356 4.2236068 7 2 C7.6875 3.625 7.6875 3.625 8 6 C6.5625 9.25 6.5625 9.25 5 12 C4.34 11.67 3.68 11.34 3 11 C3.33 9.68 3.66 8.36 4 7 C2.68 6.67 1.36 6.34 0 6 C0 6.99 0 7.98 0 9 C-0.99 9 -1.98 9 -3 9 C-2.44271087 5.65626525 -1.64826111 2.96687001 0 0 Z " fill="#7E8B95" transform="translate(438,694)"/>
<path d="M0 0 C0.66 0 1.32 0 2 0 C2 0.99 2 1.98 2 3 C2.99 2.34 3.98 1.68 5 1 C5.99 1.33 6.98 1.66 8 2 C7.814375 2.5775 7.62875 3.155 7.4375 3.75 C6.95976454 6.20692525 7.24270636 7.64397534 8 10 C7.01 10 6.02 10 5 10 C4.67 8.68 4.34 7.36 4 6 C3.54625 6.495 3.0925 6.99 2.625 7.5 C1 9 1 9 -1 9 C-0.67 6.03 -0.34 3.06 0 0 Z " fill="#818E95" transform="translate(453,699)"/>
<path d="M0 0 C0 1.65 0 3.3 0 5 C-0.99 5.33 -1.98 5.66 -3 6 C-2.67 7.32 -2.34 8.64 -2 10 C-2.99 10 -3.98 10 -5 10 C-5.99 7.36 -6.98 4.72 -8 2 C-4.77208445 -0.1519437 -3.71599191 -0.20086443 0 0 Z " fill="#7A8693" transform="translate(490,695)"/>
<path d="M0 0 C1.32 0 2.64 0 4 0 C4.66 2.31 5.32 4.62 6 7 C4.02 7.33 2.04 7.66 0 8 C-1.125 6.25 -1.125 6.25 -2 4 C-1.125 1.75 -1.125 1.75 0 0 Z " fill="#71779A" transform="translate(450,510)"/>
<path d="M0 0 C0.99 0 1.98 0 3 0 C3 4.62 3 9.24 3 14 C2.01 14 1.02 14 0 14 C0 9.38 0 4.76 0 0 Z " fill="#585F89" transform="translate(560,510)"/>
<path d="M0 0 C2.0625 0.4375 2.0625 0.4375 4 1 C4.33 2.32 4.66 3.64 5 5 C4.34 5 3.68 5 3 5 C3 5.99 3 6.98 3 8 C1.02 8 -0.96 8 -3 8 C-1.125 1.125 -1.125 1.125 0 0 Z " fill="#71769A" transform="translate(538,510)"/>
<path d="M0 0 C1.98 0 3.96 0 6 0 C5.01 0.33 4.02 0.66 3 1 C3 1.99 3 2.98 3 4 C4.32 3.67 5.64 3.34 7 3 C6.67 3.99 6.34 4.98 6 6 C5.34 5.67 4.68 5.34 4 5 C4 5.99 4 6.98 4 8 C4.66 8.33 5.32 8.66 6 9 C4.35 9 2.7 9 1 9 C0.67 6.03 0.34 3.06 0 0 Z " fill="#808C95" transform="translate(468,699)"/>
<path d="M0 0 C1.32 0 2.64 0 4 0 C3.84660156 0.55171875 3.69320313 1.1034375 3.53515625 1.671875 C2.95329729 4.20317383 2.67564555 6.66441972 2.4375 9.25 C2.35371094 10.14203125 2.26992188 11.0340625 2.18359375 11.953125 C2.12300781 12.62859375 2.06242187 13.3040625 2 14 C1.34 14 0.68 14 0 14 C0 9.38 0 4.76 0 0 Z " fill="#4D5482" transform="translate(417,510)"/>
<path d="M0 0 C0.99 0 1.98 0 3 0 C3 3.3 3 6.6 3 10 C2.34 10 1.68 10 1 10 C0.67 10.66 0.34 11.32 0 12 C0 8.04 0 4.08 0 0 Z " fill="#60678F" transform="translate(403,510)"/>
<path d="M0 0 C0 0.99 0 1.98 0 3 C-0.66 3.66 -1.32 4.32 -2 5 C-0.68 5.33 0.64 5.66 2 6 C2 6.66 2 7.32 2 8 C-0.97 8 -3.94 8 -7 8 C-5.61918777 3.8575633 -3.40174442 2.67796901 0 0 Z " fill="#515784" transform="translate(484,516)"/>
<path d="M0 0 C0.33 1.98 0.66 3.96 1 6 C0.34 6 -0.32 6 -1 6 C-1.33 7.98 -1.66 9.96 -2 12 C-2.33 12 -2.66 12 -3 12 C-3 8.37 -3 4.74 -3 1 C-1 0 -1 0 0 0 Z " fill="#777C9E" transform="translate(422,512)"/>
<path d="M0 0 C1.32 0.33 2.64 0.66 4 1 C4 2.65 4 4.3 4 6 C3.01 6 2.02 6 1 6 C0.67 4.02 0.34 2.04 0 0 Z " fill="#525985" transform="translate(421,518)"/>
<path d="M0 0 C1.98 0 3.96 0 6 0 C6 0.99 6 1.98 6 3 C4.02 3 2.04 3 0 3 C0 2.01 0 1.02 0 0 Z " fill="#C1C5CF" transform="translate(496,518)"/>
</svg>
