<?xml version="1.0" encoding="UTF-8"?>
<svg version="1.1" xmlns="http://www.w3.org/2000/svg" width="293" height="325">
<path d="M0 0 C11.22 0 22.44 0 34 0 C34 8.25 34 16.5 34 25 C45.55 25 57.1 25 69 25 C69 35.23 69 45.46 69 56 C57.45 56 45.9 56 34 56 C34 68.87 34 81.74 34 95 C36.64 95.33 39.28 95.66 42 96 C65.47916767 102.82125445 85.12905014 119.05562696 97.02734375 140.234375 C104.33960116 153.85054238 107.58610921 168.23297926 107.5 183.625 C107.49033203 185.45369629 107.49033203 185.45369629 107.48046875 187.31933594 C106.99319931 211.63792769 97.09940938 232.24697903 80.5625 249.8125 C68.68999456 260.99634503 53.83830198 269.19560382 38 273 C36.60974609 273.33644531 36.60974609 273.33644531 35.19140625 273.6796875 C10.68099668 278.64296045 -13.93420317 273.10061992 -35 260 C-38.84946015 257.1877001 -42.45172077 254.18141353 -46 251 C-46.62261719 250.45988281 -47.24523437 249.91976562 -47.88671875 249.36328125 C-58.32302847 239.70543752 -65.22109305 227.22436093 -70 214 C-70.43441406 212.81664062 -70.86882812 211.63328125 -71.31640625 210.4140625 C-78.47802446 187.00779812 -74.76181058 161.36165178 -63.96191406 139.78955078 C-61.46300407 135.14056342 -58.36348246 131.04875272 -55 127 C-53.95005859 125.72382813 -53.95005859 125.72382813 -52.87890625 124.421875 C-40.52050152 110.05880925 -23.78801571 98.83812321 -5 95 C-3.35 95 -1.7 95 0 95 C0 82.13 0 69.26 0 56 C-11.22 56 -22.44 56 -34 56 C-34 45.77 -34 35.54 -34 25 C-22.78 25 -11.56 25 0 25 C0 16.75 0 8.5 0 0 Z M-27.375 143.015625 C-39.21380493 156.4752187 -43.97155044 172.17424955 -43.17480469 189.85253906 C-41.91816161 205.29029391 -34.08687167 218.51389477 -23 229 C-10.63399961 239.26157568 4.58672974 244.7357244 20.6875 243.9375 C37.3414517 242.00243021 52.75035096 234.65910393 63.29150391 221.37207031 C74.00175963 206.84532563 77.94056963 190.68779764 75.57421875 172.77734375 C72.06763404 156.79334105 63.1513549 143.16095407 49.5625 134.0625 C23.99512641 119.19353096 -6.30444349 121.55392526 -27.375 143.015625 Z " fill="#2C2F7D" transform="translate(129,0)"/>
<path d="M0 0 C1.670625 0.77923828 1.670625 0.77923828 3.375 1.57421875 C36.95586761 17.00867313 69.95987372 20.4752699 105.1640625 7.8515625 C111.26951229 5.56652403 117.18224783 2.9466537 123 0 C130.02068338 7.64800679 137.02321283 15.31191349 144 23 C143 26 143 26 141.06079102 27.25512695 C140.21701904 27.66206787 139.37324707 28.06900879 138.50390625 28.48828125 C137.56184326 28.94452881 136.61978027 29.40077637 135.64916992 29.87084961 C134.63056885 30.34659424 133.61196777 30.82233887 132.5625 31.3125 C130.9988269 32.04835327 130.9988269 32.04835327 129.40356445 32.79907227 C98.42050282 47.10714821 60.54203946 54.01963999 27 45 C26.22865723 44.80132324 25.45731445 44.60264648 24.66259766 44.39794922 C8.1746598 40.07605701 -7.2685309 33.56631683 -22 25 C-20.58261511 21.74792908 -18.87473588 19.68638933 -16.3125 17.25 C-12.92974151 13.95916429 -9.79059103 10.55466684 -6.73828125 6.95703125 C-4.58863955 4.53687284 -2.30402328 2.27262262 0 0 Z " fill="#2E317E" transform="translate(85,277)"/>
<path d="M0 0 C0.66 0 1.32 0 2 0 C3.00574701 3.9360551 4.00361005 7.87406674 5 11.8125 C5.28617188 12.93205078 5.57234375 14.05160156 5.8671875 15.20507812 C6.13789063 16.27822266 6.40859375 17.35136719 6.6875 18.45703125 C6.93886719 19.44678955 7.19023437 20.43654785 7.44921875 21.45629883 C8 24 8 24 8 27 C8.94319092 26.75765625 9.88638184 26.5153125 10.8581543 26.265625 C14.36965365 25.36506487 17.88311724 24.47238589 21.3972168 23.58203125 C22.915665 23.19614696 24.43357777 22.80814913 25.95092773 22.41796875 C28.13647123 21.85636072 30.32384993 21.30247013 32.51171875 20.75 C33.18587326 20.57500977 33.86002777 20.40001953 34.55461121 20.21972656 C38.11245501 19.32974099 41.33095366 18.80250718 45 19 C43.36935089 23.91113144 40.58927004 27.8180189 37.625 32 C37.09479248 32.74894531 36.56458496 33.49789062 36.01831055 34.26953125 C30.87480455 41.39562777 25.13561289 47.72689439 19 54 C18.26523437 54.79664063 17.53046875 55.59328125 16.7734375 56.4140625 C4.58903184 69.32861981 -11.90825655 79.64915965 -28 87 C-30.625 87 -30.625 87 -33 86 C-35.375 83.625 -35.375 83.625 -37 81 C-36 78 -36 78 -32.6484375 76.09765625 C-31.22882001 75.40915508 -29.80406149 74.7311785 -28.375 74.0625 C-26.96517601 73.38874434 -25.55631306 72.71297389 -24.1484375 72.03515625 C-23.11541504 71.53846436 -23.11541504 71.53846436 -22.06152344 71.03173828 C-18.96319457 69.48110614 -15.98800357 67.75280524 -13 66 C-16.97119365 60.22078322 -21.52275905 55.37449526 -26.515625 50.46484375 C-28.79239441 48.20597347 -31.01943366 45.92569232 -33.1875 43.5625 C-33.75855469 42.94503906 -34.32960937 42.32757813 -34.91796875 41.69140625 C-35.27503906 41.13324219 -35.63210937 40.57507813 -36 40 C-34.75103313 36.25309938 -33.50192813 35.77728769 -30.25 33.625 C-19.24113449 25.78189633 -10.72393403 16.38768958 -3.42578125 5.02929688 C-2.32628166 3.3247373 -1.16849271 1.65802517 0 0 Z " fill="#2C2F7D" transform="translate(248,236)"/>
<path d="M0 0 C3.32895624 3.19694591 6.12764801 6.39405492 8.75 10.1875 C16.39023877 20.79578692 26.04740093 32.02370047 38 38 C36.45872649 41.71268094 34.19156766 43.98115698 31.3125 46.75 C27.53350454 50.44731688 23.97528627 54.22392504 20.5390625 58.23828125 C18.46575944 60.61152916 16.26166261 62.80687262 14 65 C22.02968356 70.39135896 30.30221794 74.82252511 39 79 C35.12585616 85.52825342 35.12585616 85.52825342 33 87 C28.18836223 86.58043233 24.24637851 84.30185859 20.0625 82.0625 C18.93751099 81.46078979 18.93751099 81.46078979 17.78979492 80.84692383 C-3.30217706 69.31033215 -20.90843949 52.94145159 -35.0625 33.625 C-35.62332275 32.86364746 -36.18414551 32.10229492 -36.76196289 31.31787109 C-39.61732551 27.3269578 -41.7668273 23.82545838 -43 19 C-35.1576187 19.71021565 -27.62400397 21.67644499 -20 23.5625 C-18.63942346 23.89559326 -17.27874709 24.228279 -15.91796875 24.56054688 C-12.61097729 25.36970436 -9.30505287 26.182967 -6 27 C-5.88785156 25.71222656 -5.77570312 24.42445313 -5.66015625 23.09765625 C-5.09788296 18.03719667 -3.86994443 13.31262601 -2.4375 8.4375 C-2.08655273 7.21063477 -2.08655273 7.21063477 -1.72851562 5.95898438 C-1.15880046 3.97079473 -0.58033086 1.98511701 0 0 Z " fill="#2C2F7D" transform="translate(43,236)"/>
<path d="M0 0 C1.41397002 2.4120665 1.34481573 4.05992161 1.0625 6.8125 C0.7325 7.4725 0.4025 8.1325 0.0625 8.8125 C0.5575 9.204375 1.0525 9.59625 1.5625 10 C3.0625 11.8125 3.0625 11.8125 3.4375 14.3125 C2.98696124 17.31609177 2.39862661 17.94462784 0.0625 19.8125 C-2.171875 20.54296875 -2.171875 20.54296875 -4.6875 21 C-5.50734375 21.15855469 -6.3271875 21.31710937 -7.171875 21.48046875 C-10.44492359 21.8734195 -13.64412323 21.86522648 -16.9375 21.8125 C-17.27445862 19.08373692 -17.60718429 16.35456837 -17.9375 13.625 C-18.03289062 12.85607422 -18.12828125 12.08714844 -18.2265625 11.29492188 C-18.68942894 7.44321189 -19.06217468 3.70079149 -18.9375 -0.1875 C-3.19924076 -1.96082498 -3.19924076 -1.96082498 0 0 Z " fill="#F5F5F8" transform="translate(173.9375,300.1875)"/>
<path d="M0 0 C2.31 0 4.62 0 7 0 C7.33 1.98 7.66 3.96 8 6 C8.804375 5.154375 9.60875 4.30875 10.4375 3.4375 C12.56057974 1.62499068 13.58101605 1.01907569 16.40234375 0.890625 C18.63651793 1.15886708 20.80497434 1.50733869 23 2 C20.66666667 4.33333333 18.33333333 6.66666667 16 9 C16.3953068 12.68325543 17.65450354 15.90605696 19.0625 19.3125 C19.42472656 20.19550781 19.78695312 21.07851563 20.16015625 21.98828125 C20.57587891 22.98408203 20.57587891 22.98408203 21 24 C18.03 23.67 15.06 23.34 12 23 C11.34 20.03 10.68 17.06 10 14 C7.21611025 15.70625501 6.14615794 16.47626739 5.25 19.6875 C5.1675 20.450625 5.085 21.21375 5 22 C3.00045254 22.04254356 0.99958364 22.04080783 -1 22 C-1.33 21.67 -1.66 21.34 -2 21 C-1.79284028 13.9754022 -1.15555777 6.9333466 0 0 Z " fill="#F4F4F8" transform="translate(121,299)"/>
<path d="M0 0 C2.97 0.495 2.97 0.495 6 1 C7.09658936 4.28976808 6.79953138 5.71303767 6 9 C7.65 9.33 9.3 9.66 11 10 C11.66 8.35 12.32 6.7 13 5 C17.75 5.875 17.75 5.875 20 7 C18.44620954 11.87325191 16.79455052 16.70993055 15 21.5 C14.690625 22.3353125 14.38125 23.170625 14.0625 24.03125 C13 26 13 26 10 27 C8.68 26.34 7.36 25.68 6 25 C6.66 22.03 7.32 19.06 8 16 C6.35 15.67 4.7 15.34 3 15 C1.68 17.31 0.36 19.62 -1 22 C-2.98 21.34 -4.96 20.68 -7 20 C-6.29937517 15.43263559 -4.68729793 11.4300495 -2.9375 7.1875 C-2.51500977 6.14819336 -2.51500977 6.14819336 -2.08398438 5.08789062 C-1.39325027 3.39032376 -0.69716272 1.69493688 0 0 Z " fill="#F6F6F9" transform="translate(89,287)"/>
<path d="M0 0 C2.62136844 2.4144183 3.79752546 4.07761597 4.5625 7.5625 C3.75808996 11.04827685 1.9075263 12.06164914 -1 14 C-1.99 14.495 -1.99 14.495 -3 15 C-2.67 17.64 -2.34 20.28 -2 23 C-4.64738916 24.4606285 -5.89448334 25 -9 25 C-10.20151896 22.25538312 -11.38638103 19.50547873 -12.5625 16.75 C-12.90474609 15.97269531 -13.24699219 15.19539063 -13.59960938 14.39453125 C-14.07817383 13.26337891 -14.07817383 13.26337891 -14.56640625 12.109375 C-15.01415405 11.07248535 -15.01415405 11.07248535 -15.47094727 10.01464844 C-16.10271259 7.60886744 -15.89251792 6.30510509 -15 4 C-10.69210265 1.06156054 -5.18140556 -1.08448023 0 0 Z " fill="#F4F4F8" transform="translate(202,288)"/>
<path d="M0 0 C1.65 0 3.3 0 5 0 C5 1.32 5 2.64 5 4 C3.35 4 1.7 4 0 4 C0 2.68 0 1.36 0 0 Z " fill="#3B3D86" transform="translate(164,312)"/>
<path d="M0 0 C2.475 0.495 2.475 0.495 5 1 C4.67 1.99 4.34 2.98 4 4 C2.68 4 1.36 4 0 4 C0 2.68 0 1.36 0 0 Z " fill="#3C3E86" transform="translate(163,304)"/>
<path d="M0 0 C2.0625 0.4375 2.0625 0.4375 4 1 C3.34 2.32 2.68 3.64 2 5 C1.34 5 0.68 5 0 5 C-0.5625 3.0625 -0.5625 3.0625 -1 1 C-0.67 0.67 -0.34 0.34 0 0 Z " fill="#3B3E86" transform="translate(195,294)"/>
</svg>
